<?xml  version="1.0" encoding="UTF-8"?>
<!DOCTYPE svg PUBLIC "-//W3C//DTD SVG 1.0//EN" "http://www.w3.org/TR/2001/REC-SVG-20010904/DTD/svg10.dtd" >
<svg xmlns="http://www.w3.org/2000/svg" >
<metadata>
<version>1.0</version>
<id><![CDATA[Didot W01 Bold Italic]]></id>
<vendor>Monotype Imaging Inc.</vendor>
<credits>
<name>Fonts.com WebFonts</name>
<URL>http://webfonts.fonts.com</URL>
<role>Home of the Web fonts</role>
</credits>
<license>
<URL>http://webfonts.fonts.com/Legal</URL>
</license>
<copyright><![CDATA[Copyright © 2012 Linotype GmbH, www.linotype.com. All rights reserved. This font software may not be reproduced, modified, disclosed or transferred without the express written approval of Linotype GmbH. Linotype Didot is a trademark of Linotype GmbH registered in the U.S. Patent and Trademark Office and may be registered in certain other jurisdictions. This typeface is original artwork of Adrian Frutiger. The design may be protected in certain jurisdictions.]]></copyright>
<trademark><![CDATA[Linotype Didot is a trademark of Linotype GmbH registered in the U.S. Patent and Trademark Office and may be registered in certain other jurisdictions.]]></trademark>
<licensee>
<name></name>
</licensee>
</metadata>
<defs >
<font horiz-adv-x="527" id="DidotW01BoldItalic">
<font-face font-family="" panose-1="2 7 8 3 9 5 6 9 3 3" ascent="969" descent="-291" units-per-em="1000" alphabetic="0">
</font-face>
<missing-glyph horiz-adv-x="0" />

<glyph unicode="&#xA;" />
<glyph unicode="&#xD;" horiz-adv-x="0" />
<glyph unicode=" " horiz-adv-x="240" />
<glyph unicode="!" horiz-adv-x="296" d="M178 663Q186 702 202 715T238 728Q260 728 281 716T302 676Q302 659 297 643T283 604L129 201H110Q126 308 137 383T155 509T167 589T173 634T176 655T178 663ZM23 52Q23 78 41 96T85 114Q111 114 129 96T147 52Q147 26 129 8T85 -10Q59 -10 41 8T23 52Z"  />
<glyph unicode="&quot;" horiz-adv-x="370" d="M301 637Q299 648 298 658T297 679Q297 708 309 718T336 728Q350 728 362 718T375 679Q375 669 374 659T371 637L345 424H327L301 637ZM145 637Q143 648 142 658T141 679Q141 708 153 718T180 728Q194 728 206 718T219 679Q219 669 218 659T215 637L189 424H171L145 637Z"  />
<glyph unicode="#" horiz-adv-x="556" d="M127 237H-6L1 255H134L206 453H73L80 471H213L300 712H321L234 471H403L490 712H511L424 471H557L550 453H417L345 255H478L471 237H338L252 0H231L317 237H148L62 0H41L127 237ZM324 255L396 453H227L155 255H324Z"  />
<glyph unicode="$" horiz-adv-x="646" d="M51 197H64Q59 149 70 113T104 51T159 13T231 0L317 312L276 349Q252 371 230 392T192 435T167 482T157 536Q157 583 178 618T234 677T315 713T411 725Q416 725 421 725T431 724L447 781H460L444 723Q468 720 487 715T522 705T553 695T581 691Q596 691 604 698T617 717L632 714L573 531H561Q563 539 565 553T568 590Q568 618 557 639T528 674T487 697T440 709L363 431L440 365Q458 349 474 333T501 298T519 257T526 206Q526 161 506 122T448 53T358 5T241 -14L221 -86H208L227 -14Q190 -13 165 -7T120 7T83 21T47 27Q33 27 22 18T9 -5L-5 -2L51 197ZM328 302L245 0Q281 2 312 13T366 45T402 94T415 158Q415 196 396 227T347 286L328 302ZM257 588Q257 565 264 546T284 510T314 477T353 441L427 710Q422 711 419 711T410 711Q342 711 300 678T257 588Z"  />
<glyph unicode="%" horiz-adv-x="778" d="M591 723L608 712L175 -12L158 0L591 723ZM167 368Q142 368 120 378T81 406T55 449T45 507Q45 537 59 571T100 635T163 684T244 704Q273 704 296 694T336 665T361 622T370 569Q370 531 354 495T310 431T246 385T167 368ZM170 382Q191 382 208 399T238 442T260 500T275 560T284 610T287 637Q287 666 275 678T243 690Q216 690 195 663T159 596T136 513T128 436Q128 413 136 398T170 382ZM511 -14Q486 -14 464 -4T425 24T399 67T389 125Q389 155 403 189T444 253T507 302T588 322Q617 322 640 312T680 283T705 240T714 187Q714 149 698 113T654 49T590 3T511 -14ZM514 0Q535 0 552 17T582 60T604 118T619 178T628 228T631 255Q631 284 619 296T587 308Q560 308 539 281T503 214T480 131T472 54Q472 31 480 16T514 0Z"  />
<glyph unicode="&amp;" horiz-adv-x="872" d="M658 442Q694 442 718 418T742 355Q742 331 728 315T694 299Q655 299 655 340Q655 357 659 368T664 393Q664 422 637 422Q619 422 594 400T542 324Q525 291 507 248T465 161Q479 103 498 64Q512 35 528 22T574 8Q597 8 617 21T655 56T687 102T712 150T729 191T737 216L750 212Q748 206 742 187T724 142T697 90T659 39T610 1T548 -14Q501 -14 465 7T401 63Q375 33 339 10T244 -14Q214 -14 180 -5T117 27T69 86T49 178Q49 233 71 280T130 367T216 436T320 486Q330 537 348 581T391 657T449 707T518 725Q556 725 575 705T595 652Q595 626 582 604T545 564T492 532T429 507V493Q429 473 430 439T435 363T445 275T460 184Q466 195 471 207T483 232Q501 273 519 311T557 378T601 424T658 442ZM279 6Q302 6 330 20T392 75Q370 106 355 143T329 220T314 297T309 369Q309 395 310 420T317 470Q272 453 244 431T200 383T178 325T172 257Q172 219 177 175T195 94T228 31T279 6ZM521 712Q497 712 480 697T452 656T436 596T429 522Q461 532 489 545T537 574T570 610T582 654Q582 681 566 696T521 712Z"  />
<glyph unicode="&apos;" horiz-adv-x="278" d="M181 637Q179 648 178 658T177 679Q177 708 189 718T216 728Q230 728 242 718T255 679Q255 669 254 659T251 637L225 424H207L181 637Z"  />
<glyph unicode="(" horiz-adv-x="259" d="M8 21Q8 99 24 190T78 375T180 558T340 723L356 710Q195 579 112 401T28 12Q28 -46 36 -97T54 -188T74 -252T85 -281L65 -291Q51 -250 40 -212T22 -137T12 -61T8 21Z"  />
<glyph unicode=")" horiz-adv-x="259" d="M-149 -278Q12 -147 95 31T179 420Q179 478 171 529T153 620T133 684T122 713L142 723Q156 682 167 644T185 569T195 493T199 411Q199 333 183 242T129 57T27 -126T-133 -291L-149 -278H-149Z"  />
<glyph unicode="*" horiz-adv-x="444" d="M268 518Q289 524 309 538T348 569Q367 586 385 599T422 612Q443 612 458 596T474 557Q474 534 459 520T418 505Q407 505 396 506T374 510Q345 514 320 515T269 514Q295 495 329 480T386 457Q412 447 422 434T432 405Q432 383 418 366T380 349Q354 349 342 363T320 399T300 451T266 511Q264 500 264 493T263 476T264 454T269 418Q273 392 274 381T276 362Q276 339 261 323T221 307Q201 307 186 319T170 354Q170 377 184 396T211 433Q225 451 233 461T246 480T254 494T262 512Q241 506 221 492T181 461Q162 444 144 431T107 418Q86 418 71 434T55 473Q55 496 70 510T111 525Q122 525 133 524T155 520Q184 516 209 515T260 516Q234 535 200 550T143 573Q117 583 107 596T97 625Q97 647 111 664T149 681Q175 681 187 667T209 631T230 579T264 519Q265 530 266 537T267 554T265 576T260 612Q256 638 255 649T253 668Q253 691 268 707T308 723Q328 723 343 711T359 676Q359 653 345 634T318 597Q304 579 296 569T283 550T275 535T268 518Z"  />
<glyph unicode="+" horiz-adv-x="650" d="M76 296H294V508H356V296H574V238H356V24H294V238H76V296Z"  />
<glyph unicode="&#x2c;" horiz-adv-x="278" d="M-18 48Q-18 74 -2 94T44 114Q79 114 98 90T118 30Q118 -18 97 -52T49 -109T-5 -144T-42 -159L-48 -144Q-37 -140 -18 -130T19 -105T51 -70T65 -23Q65 -18 65 -15T64 -7Q57 -9 53 -9T43 -10Q14 -10 -2 9T-18 48Z"  />
<glyph unicode="-" horiz-adv-x="370" d="M69 260H243L219 170H45L69 260Z"  />
<glyph unicode="." horiz-adv-x="278" d="M-17 52Q-17 78 1 96T45 114Q71 114 89 96T107 52Q107 26 89 8T45 -10Q19 -10 1 8T-17 52Z"  />
<glyph unicode="/" horiz-adv-x="296" d="M-77 -9L355 730L373 720L-59 -19L-77 -9Z"  />
<glyph unicode="0" horiz-adv-x="516" d="M165 -14Q90 -14 55 40T19 211Q19 272 33 332T72 448T129 550T198 631T272 684T344 704Q382 704 409 688T455 641T481 570T490 478Q490 413 475 352T435 235T377 135T308 56T235 5T165 -14ZM112 77Q112 44 122 22T162 0Q192 0 221 36T277 129T325 255T363 392T388 516T397 604Q397 619 395 634T388 662T372 682T346 690Q314 690 285 653T229 559T182 430T145 291T121 166T112 77Z"  />
<glyph unicode="1" horiz-adv-x="516" d="M68 14H141L312 613Q295 603 275 592T234 571T191 551T153 534L148 547Q219 577 294 618T429 704H442L246 14H329L325 0H64L68 14Z"  />
<glyph unicode="2" horiz-adv-x="516" d="M302 93Q329 93 352 101T385 138L398 176H412L365 0H-57L-62 13Q-19 50 19 85T94 154T164 223T236 298Q267 331 292 363T335 430T363 503T373 587Q373 606 367 624T347 657T315 679T272 688Q230 688 208 667T186 610Q186 599 189 589T192 564Q192 544 177 529T136 514Q110 514 98 530T85 569Q85 591 99 615T140 658T204 691T286 704Q323 704 358 693T421 661T464 608T481 534Q481 496 465 462T422 397T359 336T284 275L56 95V93H302Z"  />
<glyph unicode="3" horiz-adv-x="516" d="M43 49Q58 18 71 6T113 -7Q151 -7 184 17T241 78T280 160T294 247Q294 297 270 329T197 361Q187 361 175 359T151 355T131 350T119 346L115 361Q128 364 145 367T181 377T222 391T263 413Q305 439 329 489T354 597Q354 645 335 667T284 690Q245 690 227 667T208 599Q207 535 151 535Q134 535 121 544T108 577Q108 603 121 626T158 666T215 694T287 704Q324 704 356 695T414 668T453 624T468 565Q468 528 450 500T399 450T318 410T214 375L215 373Q252 373 287 365T349 339T392 293T408 224Q408 175 380 130T305 51T201 -4T82 -25Q44 -25 18 -18T-25 1T-49 25T-56 50Q-56 70 -42 80T-13 91Q5 91 17 84T43 49Z"  />
<glyph unicode="4" horiz-adv-x="516" d="M147 14H204L248 175H-11L-7 189Q34 250 121 365T349 636Q367 656 380 669T404 690T428 701T459 704Q479 704 496 699T513 677Q513 663 501 652T466 623Q378 553 308 494T181 383T83 283T9 189H252L323 449H434L362 189H457L453 175H358L315 14H373L369 0H143L147 14Z"  />
<glyph unicode="5" horiz-adv-x="516" d="M42 44Q57 13 68 1T102 -12Q132 -12 166 5T230 54T279 128T299 222Q299 264 283 291T241 333T182 353T115 359L209 695Q228 693 256 693T314 691T371 690T415 690Q447 690 463 701T490 722L501 715Q493 694 482 673T455 633T416 604T360 592H317Q286 592 253 594T197 599L154 448Q212 446 259 434T339 398T391 342T409 264Q409 205 379 152T301 58T193 -6T73 -30Q35 -30 10 -23T-30 -4T-51 20T-57 45Q-57 65 -43 75T-14 86Q4 86 16 79T42 44Z"  />
<glyph unicode="6" horiz-adv-x="516" d="M27 207Q27 263 44 322T91 436T159 540T240 625T327 683T413 704Q441 704 463 696T502 675T526 646T534 612Q534 585 517 575T480 564Q458 564 448 575T438 600Q438 612 440 622T443 644Q443 662 432 673T395 684Q364 684 341 669T298 626T261 555T224 458L206 405L208 403Q226 418 245 425T287 433Q323 433 352 419T401 380T433 321T444 246Q444 196 422 149T364 66T280 8T181 -14Q142 -14 113 2T65 48T37 118T27 207ZM121 56Q121 29 136 15T177 0Q206 0 229 19T272 75Q285 99 297 129T319 194T335 266T341 342Q341 376 325 397T281 419Q255 419 235 406T197 376Q183 346 170 309T146 230T128 144T121 56Z"  />
<glyph unicode="7" horiz-adv-x="516" d="M68 23Q68 34 77 50T101 85L394 466Q420 500 440 533T471 590H189Q169 590 156 583T133 565T118 539T107 507H94L142 690H521Q518 670 511 646T493 598T472 549T448 504L207 50Q197 31 188 19T170 0T148 -11T120 -14Q99 -14 84 -6T68 23Z"  />
<glyph unicode="8" horiz-adv-x="516" d="M1 163Q1 200 15 228T51 279T102 317T157 345L204 366Q187 381 172 397T144 431T124 470T116 519Q116 555 131 588T173 647T238 688T322 704Q354 704 384 696T438 669T476 625T491 562Q491 527 476 502T438 456T385 421T325 394L370 354Q401 326 421 289T442 197Q442 157 422 119T367 52T288 4T194 -14Q150 -14 115 0T54 39T15 95T1 163ZM313 403Q340 422 357 445T385 493T399 546T403 600Q403 647 379 668T320 690Q300 690 280 683T244 660T218 624T208 575Q208 527 222 496T271 437L313 403ZM94 118Q94 64 121 32T197 0Q232 0 259 13T305 48T334 97T344 154Q344 203 326 238T270 307L214 356L194 344Q167 327 148 303T117 249T100 186T94 118Z"  />
<glyph unicode="9" horiz-adv-x="516" d="M-21 78Q-21 105 -4 115T33 126Q55 126 65 115T75 90Q75 78 73 68T70 46Q70 28 83 17T124 6Q156 6 179 19T222 60T259 133T297 239L313 288L311 290Q293 275 271 266T226 257Q190 257 161 271T112 310T80 369T69 444Q69 494 90 541T148 624T230 682T327 704Q366 704 396 689T446 648T476 585T486 505Q486 440 470 376T425 254T360 147T279 62T191 6T101 -14Q72 -14 49 -6T11 15T-13 44T-21 78ZM232 271Q258 271 280 284T320 314Q360 425 377 505T395 630Q395 658 378 674T334 690Q305 690 283 671T241 615Q228 591 216 561T194 496T178 424T172 348Q172 314 187 293T232 271Z"  />
<glyph unicode=":" horiz-adv-x="278" d="M-17 52Q-17 78 1 96T45 114Q71 114 89 96T107 52Q107 26 89 8T45 -10Q19 -10 1 8T-17 52ZM81 380Q81 406 99 424T143 442Q169 442 187 424T205 380Q205 354 187 336T143 318Q117 318 99 336T81 380Z"  />
<glyph unicode=";" horiz-adv-x="278" d="M81 380Q81 406 99 424T143 442Q169 442 187 424T205 380Q205 354 187 336T143 318Q117 318 99 336T81 380ZM-18 48Q-18 74 -2 94T44 114Q79 114 98 90T118 30Q118 -18 97 -52T49 -109T-5 -144T-42 -159L-48 -144Q-37 -140 -18 -130T19 -105T51 -70T65 -23Q65 -18 65 -15T64 -7Q57 -9 53 -9T43 -10Q14 -10 -2 9T-18 48Z"  />
<glyph unicode="&lt;" horiz-adv-x="593" d="M12 244L580 480V460L45 240L580 20V0L12 236V244Z"  />
<glyph unicode="=" horiz-adv-x="593" d="M56 335H536V317H56V335ZM56 163H536V145H56V163Z"  />
<glyph unicode="&gt;" horiz-adv-x="593" d="M12 20L548 240L12 460V480L580 244V236L12 0V20Z"  />
<glyph unicode="?" horiz-adv-x="444" d="M277 725Q316 725 348 714T404 682T441 633T454 571Q454 546 446 524T423 483T392 449T356 421L281 372Q253 354 233 340T199 312T175 282T159 243L146 193H133L143 233Q148 253 152 266T161 289T175 311T196 337L261 414Q309 470 329 518T350 623Q350 647 343 663T326 690T301 706T274 711Q234 711 216 684T198 611Q198 592 185 579T144 565Q120 565 109 581T97 613Q97 633 108 653T143 689T199 715T277 725ZM49 52Q49 78 67 96T111 114Q137 114 155 96T173 52Q173 26 155 8T111 -10Q85 -10 67 8T49 52Z"  />
<glyph unicode="@" horiz-adv-x="833" d="M38 338Q38 419 71 490T160 614T292 697T454 728Q529 728 590 706T694 643T761 550T785 434Q785 381 768 331T723 243T658 181T584 157Q554 157 537 167T511 192T500 222T496 246Q490 235 481 220T456 190T420 167T369 157Q352 157 328 163T283 184T246 227T230 296Q230 346 250 390T302 467T373 519T452 539Q480 539 498 531T526 510T540 486T547 465L565 528H650L582 295Q579 284 576 270T573 242Q573 222 584 210T617 198Q641 198 667 217T714 268T750 343T764 432Q764 487 744 537T684 625T587 685T457 708Q372 708 302 676T182 592T105 473T77 336Q77 266 103 206T175 102T287 32T430 6Q492 6 562 28T699 101L712 84Q649 36 576 11T424 -14Q344 -14 274 11T152 83T69 194T38 338ZM319 277Q319 269 320 254T327 223T347 195T386 183Q405 183 420 190T447 211T468 241T485 277Q491 291 498 313T513 360T524 406T529 444Q529 465 523 478T507 500T486 511T465 514Q435 514 408 493T362 437T331 361T319 277Z"  />
<glyph unicode="A" horiz-adv-x="725" d="M494 728H517L547 14H635L631 0H319L323 14H414L402 287H198L2 14H85L81 0H-90L-86 14H-18L494 728ZM402 301L391 551H389L208 301H402Z"  />
<glyph unicode="B" horiz-adv-x="661" d="M243 698H145L149 712H396Q447 712 489 702T563 672T612 622T630 550Q630 515 614 490T573 446T517 416T454 397T394 387T347 383L345 381Q373 378 409 368T478 336T533 283T556 202Q556 149 527 110T448 46T335 8T202 -4Q184 -4 160 -4T117 -2Q99 -1 77 -1T36 0H-92L-88 14H-4L243 698ZM316 392Q354 392 386 405T443 442T480 503T494 584Q494 635 463 666T380 698H373L263 392H316ZM128 15Q150 13 162 12T196 10Q258 10 301 33T372 92T411 169T424 249Q424 274 418 293T403 325T382 348T360 363Q340 373 320 375T268 378H257L128 15Z"  />
<glyph unicode="C" horiz-adv-x="661" d="M162 150Q162 110 169 82T192 35T236 9T303 0Q349 0 386 16T453 55T502 105T535 154L549 147Q543 135 526 109T478 55T403 7T299 -14Q230 -14 182 10T103 73T58 164T44 268Q44 331 63 389T115 498T191 591T284 662T384 708T485 725Q513 725 537 719T584 706T624 692T659 686Q675 686 685 694T701 715L716 712L647 519H634Q636 529 637 548T638 587Q638 619 623 642T586 681T536 703T483 711Q428 711 383 681T303 601T241 490T197 366T171 246T162 150Z"  />
<glyph unicode="D" horiz-adv-x="794" d="M243 698H146L150 712H434Q515 712 574 691T672 633T728 545T747 436Q747 349 710 270T605 129T441 32T228 -4Q207 -4 186 -4T144 -2Q122 -1 101 -1T59 0H-92L-88 14H-3L243 698ZM129 15Q147 14 168 12T209 10Q260 10 302 21T396 64Q450 98 492 150T563 263T608 393T623 527Q623 584 600 621T544 675Q520 687 492 692T419 698H373L129 15Z"  />
<glyph unicode="E" horiz-adv-x="691" d="M243 698H145L149 712H707L646 542H632Q636 553 640 574T644 614Q644 651 623 674T544 698H373L262 389H316Q352 389 380 405T428 443T461 486T479 516H493L388 225H374Q379 237 383 258T387 298Q387 336 359 355T285 375H257L128 14H322Q367 14 404 37T471 90T520 151T548 196H562L492 0H-92L-88 14H-2L243 698Z"  />
<glyph unicode="F" horiz-adv-x="663" d="M240 698H144L148 712H715L654 542H640Q643 554 646 578T650 623Q650 657 629 677T550 698H372L254 373H356Q392 373 420 389T467 426T499 468T516 500H530L426 208H412Q415 219 419 239T424 282Q424 322 397 340T310 359H249L125 14H224L220 0H-92L-88 14H-5L240 698Z"  />
<glyph unicode="G" horiz-adv-x="736" d="M299 -14Q230 -14 182 10T103 73T58 164T44 268Q44 331 63 389T115 498T191 591T284 662T384 708T485 725Q513 725 537 719T584 706T624 692T659 686Q675 686 685 694T701 715L716 712L647 519H634Q636 529 637 548T638 587Q638 619 623 642T586 681T536 703T483 711Q428 711 383 681T303 601T241 490T197 366T171 246T162 150Q162 69 197 35T303 0Q350 0 376 24T420 95L469 234H373L377 248H666L662 234H600L516 0H500Q499 10 494 17T473 25Q462 25 444 19T403 6T354 -8T299 -14Z"  />
<glyph unicode="H" horiz-adv-x="776" d="M237 698H147L152 712H450L445 698H364L247 371H533L651 698H560L564 712H861L856 698H776L530 14H621L616 0H318L322 14H403L528 357H242L117 14H208L204 0H-92L-87 14H-8L237 698Z"  />
<glyph unicode="I" horiz-adv-x="379" d="M243 698H146L150 712H464L460 698H373L128 14H224L220 0H-92L-88 14H-3L243 698Z"  />
<glyph unicode="J" horiz-adv-x="475" d="M39 0Q46 0 56 2T81 19T112 63T149 149L345 698H250L254 712H565L561 698H476L309 233Q300 207 290 184T268 139T240 96T202 54Q170 22 130 4T42 -14Q-12 -14 -44 8T-77 82Q-77 118 -57 139T-9 160Q16 160 29 149T42 119Q42 102 37 91T27 71T16 52T11 28Q11 0 39 0Z"  />
<glyph unicode="K" horiz-adv-x="715" d="M242 698H146L150 712H461L457 698H372L258 380H266L677 696V698H584L588 712H759L755 698H704L369 439L540 14H617L613 0H302L306 14H396L260 366H253L127 14H223L219 0H-92L-88 14H-3L242 698Z"  />
<glyph unicode="L" horiz-adv-x="646" d="M243 698H146L150 712H464L460 698H373L128 14H322Q367 14 404 36T471 89T519 150T548 196H562L492 0H-92L-88 14H-2L243 698Z"  />
<glyph unicode="M" horiz-adv-x="869" d="M243 698H146L150 712H383L379 218H381L725 712H954L950 698H865L620 14H716L712 0H399L403 14H489L735 698H733L248 0L259 698H256L13 14H109L105 0H-92L-88 14H-2L243 698Z"  />
<glyph unicode="N" horiz-adv-x="701" d="M232 698H136L140 712H357L507 202H509L687 698H590L594 712H792L788 698H703L451 -14H437L236 662H234L3 14H99L95 0H-101L-97 14H-12L232 698Z"  />
<glyph unicode="O" horiz-adv-x="794" d="M44 262Q44 356 82 440T183 587T328 688T497 725Q555 725 601 702T680 641T729 552T747 446Q747 359 711 276T611 129T465 25T289 -14Q241 -14 197 3T119 55T65 141T44 262ZM162 144Q162 116 168 90T190 44T230 12T295 0Q346 0 390 31T472 111T537 223T585 347T615 466T625 561Q625 638 588 674T495 711Q447 711 403 681T322 603T256 493T205 368T173 246T162 144Z"  />
<glyph unicode="P" horiz-adv-x="643" d="M237 698H140L144 712H406Q466 712 511 698T586 658T631 600T646 529Q646 472 616 430T537 358T429 315T308 300Q281 300 263 302T228 307L122 14H219L214 0H-98L-94 14H-8L237 698ZM233 321Q261 314 295 314Q346 314 386 335T455 392T499 473T514 567Q514 633 474 665T372 698H367L233 321Z"  />
<glyph unicode="Q" horiz-adv-x="794" d="M212 -6Q173 5 142 26T90 80T56 158T44 262Q44 361 82 446T185 593T331 690T501 725Q564 725 610 704T687 644T732 555T747 444Q747 386 730 329T683 221T609 127T515 53T406 4T285 -14Q281 -14 275 -14T258 -13L256 -15Q282 -34 308 -39T366 -46Q402 -48 428 -53T475 -67T512 -91T546 -127Q569 -156 588 -166T623 -177H635V-191H595Q556 -191 516 -188T439 -176T371 -151T319 -107L282 -59Q265 -37 249 -25T212 -6ZM162 144Q162 116 167 90T187 44T227 12T291 0Q342 0 387 31T469 111T535 223T584 347T614 466T625 561Q625 639 591 675T499 711Q451 711 407 681T326 603T258 493T207 368T174 246T162 144Z"  />
<glyph unicode="R" horiz-adv-x="682" d="M242 698H145L151 712H407Q444 712 485 705T560 679T616 632T638 557Q638 507 612 475T544 424T453 396T354 384L352 381Q383 379 416 374T476 355T521 318T539 257Q539 232 535 209T527 163T518 117T514 69Q514 41 526 25T567 8Q582 8 592 12L596 -1Q587 -3 575 -4T544 -6Q496 -6 466 0T418 18T393 51T386 102Q386 117 389 141T398 192Q402 218 405 244T409 289Q409 307 404 323T383 352T341 371T271 378H259L128 14H225L220 0H-92L-87 14H-2L242 698ZM263 392H301Q345 392 374 398T422 417Q436 426 450 440T477 474T496 522T504 587Q504 644 473 671T392 698H373L263 392Z"  />
<glyph unicode="S" horiz-adv-x="625" d="M23 197H36Q31 182 27 169T23 138Q23 104 39 78T81 35T136 9T194 0Q282 0 330 44T379 160Q379 198 364 227T319 284L248 349Q200 392 175 434T149 531Q149 572 169 607T225 669T307 710T408 725Q441 725 466 720T511 707T549 695T583 689Q598 689 606 696T619 715L634 712L565 521H553Q555 529 558 543T562 580Q562 614 547 639T510 680T460 703T408 711Q375 711 347 702T299 677T267 639T255 588Q255 565 261 546T277 510T302 479T331 451L420 371Q456 339 479 303T502 210Q502 168 482 128T422 56T327 5T199 -14Q158 -14 130 -8T80 6T41 20T4 27Q-10 27 -21 18T-34 -5L-48 -2L23 197Z"  />
<glyph unicode="T" horiz-adv-x="716" d="M418 698H346Q304 698 267 675T201 622T151 561T121 515H107L177 712H796L726 515H712Q717 535 719 559T721 607Q721 645 695 671T609 698H548L303 14H399L395 0H82L86 14H173L418 698Z"  />
<glyph unicode="U" horiz-adv-x="776" d="M147 712H460L456 698H369L225 298Q210 256 202 219T194 144Q194 75 232 40T338 4Q395 4 439 25T515 81T569 157T604 241L746 698H650L654 712H852L848 698H762L615 228Q576 103 501 45T311 -14Q257 -14 214 1T142 42T98 105T82 183Q82 228 91 269T115 352L239 698H143L147 712Z"  />
<glyph unicode="V" horiz-adv-x="706" d="M405 712L401 698H311L320 157H322L727 698H646L650 712H816L812 698H747L219 -14H193L179 698H88L92 712H405Z"  />
<glyph unicode="W" horiz-adv-x="1026" d="M184 698H92L96 712H394L390 698H311L316 170H318L548 499L550 698H463L467 712H774L770 698H676L681 177H683L1041 698H963L967 712H1136L1132 698H1061L573 -14H553L547 469H545L211 -14H186L184 698Z"  />
<glyph unicode="X" horiz-adv-x="699" d="M314 327L26 14H107L103 0H-56L-52 14H6L307 343L213 698H124L128 712H438L434 698H346L417 427L665 698H588L592 712H751L747 698H685L424 412L528 14H616L612 0H303L307 14H397L314 327Z"  />
<glyph unicode="Y" horiz-adv-x="657" d="M154 14L264 323L193 698H102L106 712H418L414 698H321L386 355L691 698H611L615 712H775L771 698H711L393 339L276 14H373L369 0H56L60 14H154Z"  />
<glyph unicode="Z" horiz-adv-x="675" d="M541 698H363Q319 698 282 676T216 625T168 565T139 517H125L194 712H699L110 14H348Q391 14 428 36T494 89T542 150T571 196H585L514 0H-48L541 698Z"  />
<glyph unicode="[" horiz-adv-x="259" d="M205 712H329L323 692H221L-34 -260H70L64 -280H-60L205 712Z"  />
<glyph unicode="\" horiz-adv-x="296" d="M161 -19L115 720L135 730L181 -9L161 -19Z"  />
<glyph unicode="]" horiz-adv-x="259" d="M-10 -280H-134L-128 -260H-26L229 692H125L131 712H255L-10 -280Z"  />
<glyph unicode="^" horiz-adv-x="593" d="M292 712H301L473 305H452L296 674L141 305H119L292 712Z"  />
<glyph unicode="_" horiz-adv-x="500" d="M0 -106V-75H500V-106H0Z"  />
<glyph unicode="`" horiz-adv-x="278" d="M225 529H210L100 660Q95 666 92 672T88 688Q88 700 98 711T127 722Q142 722 149 713T159 696L225 529Z"  />
<glyph unicode="a" horiz-adv-x="541" d="M377 126Q368 100 362 78T356 36Q356 10 378 10Q396 10 411 21T438 46T457 74T467 94L478 89Q473 78 464 61T438 27T397 -1T336 -13Q301 -13 280 4T259 52Q259 60 261 75T268 104H266Q254 87 237 67T199 29T154 -1T102 -13Q54 -13 23 20T-8 117Q-8 178 22 236T99 340T197 414T295 442Q324 442 342 424T362 377H363L382 429H486L377 126ZM332 293Q350 342 350 363Q350 387 338 405T297 423Q272 423 248 404T201 355T159 286T126 207T103 129T95 63Q95 34 102 21T127 8Q147 8 171 25T218 66T258 115T281 155L332 293Z"  />
<glyph unicode="b" horiz-adv-x="523" d="M336 760L185 339L187 338Q199 357 214 375T248 409T288 433T336 442Q365 442 387 431T425 402T449 359T457 309Q457 270 443 231T405 156T349 90T282 36T211 0T143 -13Q123 -13 100 -7T58 13T27 50T14 107Q14 127 20 156T34 208L226 746H148L152 760H336ZM100 61Q100 32 110 17T145 1Q174 1 201 19T252 67T296 135T330 213T353 293T361 365Q361 392 352 407T320 423Q294 423 268 405T218 358T172 290T134 212T109 132T100 61Z"  />
<glyph unicode="c" horiz-adv-x="420" d="M280 442Q297 442 316 437T351 422T377 396T388 359Q388 339 381 325T363 301T340 288T318 284Q301 284 290 293T279 321Q279 334 285 344T297 363T310 381T316 402Q316 414 305 421T274 429Q248 429 225 411T181 364T145 297T118 222T100 149T94 89Q94 49 113 27T170 5Q200 5 224 15T268 40T303 73T331 109L343 101Q331 83 314 63T274 26T221 -2T154 -13Q119 -13 90 -2T38 28T4 76T-9 139Q-9 186 14 239T77 338T169 412T280 442Z"  />
<glyph unicode="d" horiz-adv-x="540" d="M377 126Q368 100 362 78T356 36Q356 10 378 10Q396 10 411 21T438 46T457 74T467 94L478 89Q473 78 464 61T438 27T397 -1T336 -13Q301 -13 280 4T259 52Q259 60 261 75T268 104H266Q254 87 237 67T199 29T154 -1T102 -13Q54 -13 23 24T-8 125Q-8 186 22 243T99 344T197 415T295 442Q324 442 342 424T362 378H363L495 746H417L421 760H604L377 126ZM332 293Q350 342 350 363Q350 387 338 405T297 423Q272 423 248 404T201 355T159 286T126 207T103 129T95 63Q95 34 102 21T127 8Q147 8 171 25T218 66T258 115T281 155L332 293Z"  />
<glyph unicode="e" horiz-adv-x="433" d="M343 101Q338 94 325 75T288 37T232 2T155 -13Q117 -13 87 -2T36 30T3 79T-9 142Q-9 187 14 239T77 337T167 412T275 442Q302 442 325 437T365 422T393 396T403 360Q403 333 389 313T353 279T304 257T250 243T200 236T164 234Q154 234 144 234T122 236Q111 204 103 167T94 93Q94 44 115 25T171 5Q204 5 230 17T277 47T310 81T331 109L343 101ZM309 384Q309 406 299 417T271 428Q245 428 223 410T182 365T149 307T127 250Q133 249 141 249T157 248Q191 248 219 258T267 287T298 330T309 384Z"  />
<glyph unicode="f" horiz-adv-x="346" d="M432 746Q396 746 369 718T323 651T290 571T270 505L249 429H360L356 415H245L154 76Q136 11 107 -49T41 -155T-40 -228T-132 -256Q-175 -256 -204 -237T-234 -175Q-234 -150 -218 -132T-173 -113Q-154 -113 -145 -122T-136 -145Q-136 -165 -143 -180T-151 -212Q-151 -242 -123 -242Q-88 -242 -54 -184T16 2L129 415H45L48 429H133L148 484Q164 542 193 592T260 679T341 738T429 760Q460 760 483 751T520 728T541 697T548 663Q548 642 532 622T484 602Q457 602 449 614T441 640Q441 652 446 661T458 679T469 695T474 713Q474 731 462 738T432 746Z"  />
<glyph unicode="g" horiz-adv-x="529" d="M200 139Q169 139 140 146T89 171L68 160Q38 144 25 127T11 92Q11 70 30 60T94 47L241 41Q269 40 293 33T336 12T365 -23T376 -74Q376 -108 358 -146T304 -216T218 -270T101 -291Q16 -291 -34 -261T-85 -177Q-85 -129 -53 -100T34 -44L48 -37Q34 -33 21 -26T-4 -8T-21 18T-28 54Q-28 92 -11 116T42 161L78 181Q65 195 58 215T50 263Q50 300 69 333T119 390T190 428T270 442Q311 442 344 426T398 381Q416 407 433 419T477 432Q509 432 524 412T539 363Q539 341 527 326T488 311Q472 311 463 319T453 341Q453 351 456 358T464 372T473 384T477 398Q477 415 460 415Q449 415 436 404T406 367Q413 353 417 338T421 306Q421 274 403 244T355 191T284 153T200 139ZM50 -53Q43 -59 35 -69T19 -94T6 -125T1 -162Q1 -219 26 -247T110 -276Q136 -276 171 -268T239 -242T294 -193T317 -120Q317 -83 290 -66T215 -47L65 -40L50 -53ZM155 207Q155 153 202 153Q229 153 250 176T286 234T309 306T317 373Q317 399 302 413T267 428Q239 428 218 405T183 348T162 276T155 207Z"  />
<glyph unicode="h" horiz-adv-x="548" d="M198 311Q237 376 275 405T364 435Q384 435 401 429T431 413T451 388T458 357Q458 340 452 324T438 284L373 95Q368 80 364 64T360 34Q360 26 364 18T382 10Q397 10 410 18T435 40T455 66T469 91L480 86Q475 76 466 60T441 27T401 -1T341 -13Q303 -13 281 4T258 54Q258 70 261 82T270 111L350 334Q359 359 359 378Q359 389 353 400T329 411Q312 411 291 397T247 358T204 296T166 214L89 0H-16L257 746H176L180 760H362L196 311H198Z"  />
<glyph unicode="i" horiz-adv-x="298" d="M182 648Q182 676 201 695T249 715Q277 715 296 696T316 648Q316 620 297 601T249 581Q221 581 202 600T182 648ZM122 415H43L47 429H230L115 97Q110 83 106 66T101 34Q101 23 106 17T124 10Q139 10 153 18T179 40T200 66T214 91L225 86Q220 76 211 60T186 27T145 -1T85 -13Q50 -13 28 5T5 55Q5 71 8 85T16 116L122 415Z"  />
<glyph unicode="j" horiz-adv-x="298" d="M-141 -241Q-114 -241 -91 -208T-45 -110L145 415H65L69 429H253L89 -26Q79 -55 58 -94T6 -169T-64 -230T-149 -255Q-164 -255 -180 -252T-209 -240T-230 -217T-238 -181Q-238 -158 -225 -142T-187 -126Q-173 -126 -165 -131T-156 -151Q-156 -168 -162 -181T-168 -211Q-168 -241 -141 -241ZM202 648Q202 676 221 695T269 715Q297 715 316 696T336 648Q336 620 317 601T269 581Q241 581 222 600T202 648Z"  />
<glyph unicode="k" horiz-adv-x="519" d="M252 746H174L178 760H362L189 278H194Q224 278 250 301T301 359Q328 397 355 419T418 442Q444 442 462 427T480 376Q480 353 467 333T425 312Q405 312 395 321T385 346Q385 363 390 371T396 389Q396 404 378 404Q363 404 349 391T316 354L293 324Q276 303 261 291T232 274V271Q254 268 271 264T302 249T325 221T339 175L359 60Q363 39 367 28T383 17Q392 17 402 26T422 49T439 75T450 97L463 91Q456 75 446 57T420 23T385 -3T337 -13Q305 -13 285 2T256 59L233 184Q225 226 217 245T188 264H183L88 0H-16L252 746Z"  />
<glyph unicode="l" horiz-adv-x="298" d="M238 746H159L163 760H346L110 97Q105 83 101 66T96 34Q96 23 101 17T119 10Q134 10 148 18T174 40T195 66T209 91L220 86Q215 76 206 60T181 27T140 -1T80 -13Q45 -13 23 5T0 55Q0 71 3 85T13 117L238 746Z"  />
<glyph unicode="m" horiz-adv-x="776" d="M599 95Q594 80 590 64T586 34Q586 26 590 18T609 10Q624 10 638 18T663 40T683 66T697 91L708 86Q703 76 694 60T669 27T629 -1T569 -13Q531 -13 509 4T486 54Q486 70 489 82T498 111L577 334Q586 359 586 379Q586 394 580 402T558 411Q542 411 521 394T477 347T433 278T397 196L326 0H222L337 313Q351 353 351 374Q351 391 345 401T322 411Q308 411 289 398T248 359T204 293T162 200L89 0H-15L131 415H51L55 429H237L196 311H198Q230 367 268 401T359 435Q398 435 421 414T444 359Q444 350 443 341T439 320H440Q478 377 513 406T594 435Q635 435 659 412T684 355Q684 335 678 318T665 280L599 95Z"  />
<glyph unicode="n" horiz-adv-x="548" d="M368 95Q363 80 359 64T355 34Q355 26 359 18T377 10Q392 10 405 18T430 40T450 66T464 91L475 86Q470 76 461 60T436 27T396 -1T336 -13Q298 -13 276 4T253 54Q253 70 256 82T265 111L345 334Q354 359 354 378Q354 389 348 400T324 411Q307 411 286 397T242 358T199 296T161 214L84 0H-20L125 415H48L52 429H231L191 311H193Q232 376 270 405T359 435Q399 435 425 413T451 357Q451 340 446 324T433 284L368 95Z"  />
<glyph unicode="o" horiz-adv-x="491" d="M-6 165Q-6 216 17 266T78 355T167 418T274 442Q313 442 342 427T391 388T421 332T431 268Q431 211 407 160T343 71T254 10T154 -13Q116 -13 87 0T37 38T5 94T-6 165ZM93 73Q93 35 108 18T149 1Q177 1 202 21T247 73T282 145T309 224T325 296T331 351Q331 388 317 408T271 428Q246 428 223 409T180 359T144 290T117 212T99 136T93 73Z"  />
<glyph unicode="p" horiz-adv-x="551" d="M139 415H57L61 429H243L223 368H225Q234 379 246 392T274 416T309 434T352 442Q387 442 412 428T454 391T477 336T485 270Q485 214 462 163T402 73T319 11T225 -13Q183 -13 162 11T127 78H125L4 -266H78L74 -280H-167L-163 -266H-101L139 415ZM135 105Q138 86 144 69T160 38T182 16T208 8Q242 8 273 41T329 125T367 233T381 340Q381 423 331 423Q314 423 297 413T265 389T236 358T214 330L135 105Z"  />
<glyph unicode="q" horiz-adv-x="536" d="M268 94L267 96Q257 84 241 65T204 29T157 0T103 -13Q80 -13 61 -3T26 25T3 67T-6 120Q-6 180 24 238T99 341T197 414T298 442Q317 442 330 435T351 418T363 395T367 372H368L388 429H492L242 -266H313L309 -280H57L60 -266H138L268 94ZM345 315Q348 326 350 336T353 360Q353 392 339 407T302 423Q275 423 249 403T201 349T159 275T126 193T105 114T97 53Q97 33 104 21T126 8Q147 8 172 25T222 67T264 117T288 159L345 315Z"  />
<glyph unicode="r" horiz-adv-x="429" d="M331 419Q315 419 293 402T247 356T202 290T166 214L90 0H-15L94 308Q103 334 111 361T127 415H50L55 429H234Q229 408 220 379T200 322L202 320Q212 335 227 354T262 392T302 422T345 435Q365 435 378 429T400 411T412 387T416 359Q416 339 410 326T394 304T373 293T352 290Q337 290 326 298T315 325Q315 337 320 346T332 364T344 380T350 400Q350 419 331 419Z"  />
<glyph unicode="s" horiz-adv-x="375" d="M233 428Q196 428 175 407T153 359Q153 336 160 317T186 275L245 198Q256 183 264 164T272 124Q272 90 254 65T207 22T147 -4T86 -13Q62 -13 40 -7T1 10T-27 39T-37 78Q-37 106 -21 121T19 137Q34 137 42 128T51 106Q51 91 45 76T39 45Q39 24 52 13T88 1Q107 1 123 7T151 24T169 49T176 77Q176 96 172 112T152 149L104 212Q89 232 77 255T64 308Q64 335 78 359T117 401T171 431T234 442Q256 442 276 437T311 421T334 397T343 365Q343 339 329 326T292 312Q275 312 263 322T251 351Q251 368 259 377T268 399Q268 411 259 419T233 428Z"  />
<glyph unicode="t" horiz-adv-x="331" d="M127 415H41L45 429H131L168 527H271L235 429H338L335 415H231L117 100Q112 85 108 70T104 41Q104 33 110 22T135 10Q151 10 165 18T191 40T211 66T225 91L236 86Q231 76 223 60T198 27T156 -1T94 -13Q53 -13 30 6T6 62Q6 79 10 92T19 121L127 415Z"  />
<glyph unicode="u" horiz-adv-x="532" d="M249 46Q249 71 261 103L259 105Q246 87 231 66T198 28T156 -1T102 -13Q83 -13 66 -8T35 7T13 31T5 66Q5 86 11 104T22 138L120 415H42L47 429H232L119 109Q111 88 107 72T103 47Q103 33 110 22T135 11Q157 11 181 31T228 84T270 155T304 234L371 429H476L359 95Q354 80 350 64T346 34Q346 26 350 18T368 10Q383 10 396 18T421 40T441 66T455 91L466 86Q461 76 452 60T427 27T387 -1T327 -13Q289 -13 269 3T249 46Z"  />
<glyph unicode="v" horiz-adv-x="457" d="M91 -6Q96 2 99 13T103 40Q103 57 97 69T85 96L59 152Q48 175 40 199T32 245Q32 298 66 344T154 433L174 449L183 438Q124 388 124 313Q124 296 128 276T140 236T157 195T174 157Q182 140 187 126T193 100Q229 130 254 155T295 204T318 249T325 295Q325 310 322 321T314 343T306 365T302 392Q302 415 318 428T358 442Q375 442 386 435T405 417T416 392T419 364Q419 330 405 299T368 240T318 188T265 142L215 101Q192 81 177 68T147 40Q132 25 121 12T103 -13L91 -6Z"  />
<glyph unicode="w" horiz-adv-x="732" d="M372 -6Q377 2 380 13T384 40Q384 57 378 69T366 96L340 152Q335 162 331 171T323 191Q309 177 294 165T265 142L215 101Q192 81 177 68T147 40Q132 25 121 12T103 -13L91 -6Q96 2 99 13T103 40Q103 57 97 69T85 96L59 152Q48 175 40 199T32 245Q32 298 66 344T154 433L174 449L183 438Q124 388 124 313Q124 296 128 276T140 236T157 195T174 157Q182 140 187 126T193 100Q229 130 254 155T295 204T318 249T325 295Q325 310 322 321T314 343T306 365T302 392Q302 415 318 428T358 442Q378 442 390 434T409 411L435 433L455 449L464 438Q405 388 405 313Q405 296 409 276T421 236T438 195T455 157Q463 140 468 126T474 100Q510 130 534 155T573 204T594 249T600 295Q600 310 597 321T589 343T581 365T577 392Q577 415 593 428T633 442Q650 442 661 435T680 417T691 392T694 364Q694 330 681 299T646 240T598 188T546 142L496 101Q473 81 458 68T428 40Q413 25 402 12T384 -13L372 -6Z"  />
<glyph unicode="x" horiz-adv-x="586" d="M61 -13Q11 -13 -14 12T-40 69Q-40 106 -21 122T22 139Q36 139 45 132T55 108Q55 95 50 86T39 69T27 52T22 29Q22 12 33 6T61 0Q80 0 94 9T122 35T149 79T179 141Q188 162 198 192T218 254T232 317T238 373Q238 394 228 409T194 424Q171 424 150 411T112 381T81 345T63 315L50 321Q54 330 67 350T101 391T148 426T208 442Q237 442 256 434T287 413T304 388T312 364Q319 373 333 386T368 412T412 433T463 442Q483 442 499 435T526 417T543 390T549 359Q549 336 536 316T492 295Q478 295 469 301T459 323Q459 336 464 344T474 360T485 377T490 399Q490 414 482 421T461 428Q437 428 414 405T371 347T335 268T306 185T288 111T281 63Q281 34 293 20T325 5Q346 5 367 17T405 46T436 82T456 113L468 106Q463 97 450 77T417 37T369 2T310 -13Q281 -13 263 -6T235 13T220 38T213 64Q187 33 149 10T61 -13Z"  />
<glyph unicode="y" horiz-adv-x="487" d="M343 331Q353 350 365 370T390 406T420 432T456 442Q482 442 493 427T504 391Q504 366 490 350T452 334Q441 334 434 339T426 357Q426 371 433 380T440 399Q440 411 427 411Q412 411 396 391T352 319L190 19L135 -90Q118 -122 99 -152T56 -205T4 -242T-60 -256Q-77 -256 -93 -252T-121 -239T-140 -216T-148 -182Q-148 -156 -134 -139T-92 -121Q-77 -121 -68 -128T-59 -151Q-59 -169 -66 -181T-73 -212Q-73 -225 -66 -233T-41 -242Q-6 -242 25 -211T79 -127T117 -6T131 136Q131 279 116 341T75 404Q60 404 50 394T31 368T19 335T11 305L-2 309Q2 325 8 347T26 391T58 427T110 442Q144 442 167 429T206 394T227 343T234 283Q234 235 228 185T207 83H209L343 331Z"  />
<glyph unicode="z" horiz-adv-x="475" d="M338 16Q365 16 365 38Q365 50 360 58T345 74Q334 83 320 96T305 133Q305 153 318 164T350 175Q377 175 390 157T403 107Q403 71 392 48T362 11T322 -8T277 -13Q240 -13 217 -10T167 0L114 12Q98 16 82 18T42 20Q16 20 -2 9T-29 -13L-40 -4L285 329Q265 330 235 330T174 332T119 333T86 334Q57 334 51 308L46 289L33 292Q36 301 40 319T50 358T59 395T65 417Q69 425 73 429T89 433Q98 433 120 433T171 431T231 429T291 427T341 426T371 425Q380 425 386 429T396 439L405 431L97 114Q123 114 143 112T181 104T215 90T249 68L282 43Q298 31 312 24T338 16Z"  />
<glyph unicode="{" horiz-adv-x="442" d="M184 -280Q169 -278 148 -273T106 -256T72 -223T58 -166Q58 -154 60 -138T67 -106T74 -75T81 -51L109 56Q111 64 115 80T119 114Q119 142 108 160T81 189T46 205T13 214L14 219Q66 227 97 241T146 275T173 320T191 376L226 507Q241 563 257 602T297 665T358 701T450 712L445 694Q397 694 366 685T313 653T277 597T249 512L227 434L213 373Q202 333 189 305T156 259T109 230T42 216Q54 215 70 212T103 196Q127 177 134 154T141 116Q141 97 136 76T126 38L94 -81Q93 -86 91 -95T86 -116T82 -140T80 -165Q80 -211 109 -235T189 -262L184 -280Z"  />
<glyph unicode="|" horiz-adv-x="222" d="M101 750H121V-250H101V750Z"  />
<glyph unicode="}" horiz-adv-x="442" d="M336 214Q285 206 254 192T204 159T175 114T157 57L121 -75Q105 -134 87 -173T44 -236T-17 -270T-105 -280L-100 -262Q-57 -262 -26 -254T28 -226T67 -170T99 -81L120 -1Q121 3 123 11T128 30T132 48T135 60Q146 100 160 128T193 174T241 203T308 216Q297 218 281 221T247 237Q224 256 218 279T211 315Q211 333 215 351T226 394L258 513Q262 527 267 552T273 599Q273 646 243 668T166 694L171 712Q187 710 208 705T248 687T281 654T295 599Q295 578 289 553T271 483L242 376Q240 367 237 351T233 318Q233 290 243 273T269 244T303 228T337 219L336 214Z"  />
<glyph unicode="~" horiz-adv-x="650" d="M59 211Q59 251 70 279T99 326T143 352T196 361Q201 361 206 361T217 359Q237 356 269 342T338 313T410 286T470 274Q498 274 516 295T535 359H591Q591 318 582 290T557 244T521 218T478 209H458Q453 209 448 209T438 211Q419 214 393 224T337 248T279 273T223 290Q197 296 179 295Q151 293 134 273T116 211H59Z"  />
<glyph unicode="&#xA0;" horiz-adv-x="240" />
<glyph unicode="&#xA1;" horiz-adv-x="296" d="M115 -226Q107 -265 91 -278T55 -291Q33 -291 12 -279T-9 -239Q-9 -222 -4 -206T10 -167L164 236H183Q167 129 156 54T138 -72T126 -152T120 -197T116 -218T115 -226ZM270 385Q270 359 252 341T208 323Q182 323 164 341T146 385Q146 411 164 429T208 447Q234 447 252 429T270 385Z"  />
<glyph unicode="&#xA2;" horiz-adv-x="420" d="M115 7Q79 27 58 64T37 155Q37 202 58 253T117 346T208 415T326 442Q338 442 350 439L392 516L406 509L366 435Q392 427 413 408T434 359Q434 339 427 325T409 301T386 288T364 284Q347 284 336 293T325 321Q325 334 331 344T343 363T356 381T362 402Q362 411 356 417L151 40Q169 5 216 5Q246 5 270 15T314 40T349 73T377 109L389 101Q377 83 360 63T320 26T267 -2T200 -13Q163 -13 129 0L87 -77L73 -70L115 7ZM140 98Q140 75 144 60L343 425Q338 427 333 428T320 429Q292 429 268 412T223 366T188 301T162 228T146 157T140 98Z"  />
<glyph unicode="&#xA3;" horiz-adv-x="612" d="M430 725Q457 725 482 718T526 696T557 662T569 614Q569 600 566 586T554 560T533 541T502 533Q482 533 472 542T461 566Q461 582 466 593T479 615T491 636T497 664Q497 677 491 686T474 700T451 708T429 711Q391 711 367 692T328 635T304 546T288 426L283 381H427L423 367H281L264 204Q258 156 235 110Q268 103 306 98T390 93Q424 93 445 100T478 116T496 134T505 149L516 143Q510 132 496 106T459 54T406 7T340 -14Q310 -14 278 -2T217 38L198 55Q175 28 147 12T86 -5Q51 -5 33 14T14 62Q14 91 34 113T90 135Q111 135 135 130T187 119Q193 143 193 166Q193 219 188 265T179 367H91L95 381H178Q177 402 177 425T176 475Q176 521 196 566T251 646T332 703T430 725ZM85 8Q114 8 136 28T173 77Q144 100 124 109T84 118Q59 118 43 103T27 63Q27 37 43 23T85 8Z"  />
<glyph unicode="&#xA4;" horiz-adv-x="556" d="M77 357Q77 393 90 429T130 494L66 558L79 571L143 507Q172 533 206 546T280 560Q318 560 352 546T416 507L481 571L494 558L430 494Q449 473 459 452T475 412T481 380T483 357Q483 349 482 334T475 301T460 262T430 220L494 156L481 143L416 207Q386 178 349 166T279 154Q252 154 230 160T191 174T162 192T143 207L79 143L66 156L129 220Q96 258 87 295T77 357ZM98 357Q98 319 112 286T150 229T208 190T280 175Q317 175 350 189T408 228T447 286T462 357Q462 394 448 427T409 485T351 524T280 539Q242 539 209 525T151 485T112 427T98 357Z"  />
<glyph unicode="&#xA5;" horiz-adv-x="516" d="M186 426H51L54 440H183L138 698H69L72 712H328L324 698H252L306 353L543 698H486L490 712H614L610 698H562L384 440H515L511 426H375L315 339L304 301H476L473 287H300L225 14H299L295 0H38L41 14H111L186 287H12L15 301H190L201 339L186 426Z"  />
<glyph unicode="&#xA6;" horiz-adv-x="222" d="M101 325V675H121V325H101ZM101 -175V175H121V-175H101Z"  />
<glyph unicode="&#xA7;" horiz-adv-x="556" d="M406 725Q440 725 468 716T516 692T547 658T558 617Q558 579 541 563T500 547Q481 547 470 558T459 587Q459 600 463 609T473 627T483 643T488 665Q488 678 479 687T457 701T429 709T401 711Q373 711 347 701T301 673T269 629T257 573Q257 531 281 496T334 437L396 385Q437 351 452 319T468 244Q468 204 447 171T399 112T347 70T312 48Q326 35 340 7T355 -65Q355 -106 335 -146T280 -219T198 -271T96 -291Q57 -291 25 -283T-29 -259T-64 -224T-76 -180Q-76 -147 -59 -128T-16 -109Q4 -109 14 -120T25 -149Q25 -159 23 -167T17 -185T11 -204T8 -227Q8 -241 16 -250T38 -266T67 -274T99 -277Q130 -277 158 -265T207 -231T240 -180T253 -118Q253 -93 248 -73T233 -36T209 -5T177 24L114 75Q74 107 58 141T42 216Q42 245 50 269T73 315T108 356T154 394L191 422Q180 435 173 460T165 518Q165 561 187 599T243 665T320 709T406 725ZM173 390Q147 369 133 342T118 276Q118 244 136 215T175 169L252 103Q269 89 281 78T302 57Q312 63 325 74T350 103T370 143T378 192Q378 231 360 259T316 309L252 363Q216 394 200 412L173 390Z"  />
<glyph unicode="&#xA8;" horiz-adv-x="278" d="M253 624Q253 650 272 669T317 688Q343 688 362 669T381 624Q381 598 362 579T317 560Q291 560 272 579T253 624ZM83 624Q83 650 102 669T147 688Q173 688 192 669T211 624Q211 598 192 579T147 560Q121 560 102 579T83 624Z"  />
<glyph unicode="&#xA9;" horiz-adv-x="833" d="M43 357Q43 433 72 501T151 619T269 698T414 728Q490 728 558 699T676 619T755 501T785 357Q785 280 756 213T676 95T558 16T414 -14Q337 -14 270 15T152 95T72 212T43 357ZM63 357Q63 285 90 221T165 109T277 34T414 6Q486 6 550 33T662 109T737 221T765 357Q765 429 738 493T662 605T550 680T414 708Q341 708 277 681T166 605T91 493T63 357ZM569 150H559Q554 163 540 163Q533 163 522 160T496 152T464 145T427 141Q383 141 343 158T271 205T222 275T203 361Q203 412 223 453T276 523T349 568T427 584Q465 584 493 573T538 562Q546 562 549 564T555 574H565V453H557Q551 473 542 495T519 535T482 564T428 576Q387 576 362 562T324 520T306 447T301 343Q301 288 308 251T330 192T370 159T428 149Q455 149 476 160T514 188T542 229T559 276H569V150Z"  />
<glyph unicode="&#xAA;" horiz-adv-x="324" d="M263 518Q258 503 254 489T250 464Q250 449 262 449Q273 449 282 455T298 468T309 484T315 495L324 491Q321 484 315 474T299 455T273 438T234 431Q212 431 200 441T187 469Q187 475 188 481T192 496H191Q184 486 174 475T151 454T124 438T94 431Q65 431 47 451T28 509Q28 546 46 581T91 643T149 687T209 704Q226 704 236 696T249 670H250L261 696H327L263 518ZM230 614Q241 642 241 657Q241 672 233 682T210 692Q189 692 168 668T131 611T104 541T94 479Q94 449 113 449Q124 449 137 458T164 481T186 509T199 533L230 614Z"  />
<glyph unicode="&#xAB;" horiz-adv-x="433" d="M207 344Q173 338 151 320T114 278T94 226T88 176Q88 138 101 116T139 86L135 74Q115 79 93 87T50 110T17 147T4 201Q4 242 21 270T66 316T131 343T207 357V344ZM362 331Q328 325 306 307T269 265T249 213T243 163Q243 125 256 103T294 73L290 61Q270 66 248 74T205 97T172 134T159 188Q159 229 176 257T221 303T286 330T362 344V331Z"  />
<glyph unicode="&#xAC;" horiz-adv-x="593" d="M516 317H56V335H536V145H516V317Z"  />
<glyph unicode="&#xAD;" horiz-adv-x="370" d="M69 260H243L219 170H45L69 260Z"  />
<glyph unicode="&#xAE;" horiz-adv-x="490" d="M115 542Q115 580 129 614T169 673T228 713T300 728Q338 728 372 714T431 674T471 614T486 542Q486 504 472 470T432 411T372 372T300 357Q262 357 228 371T169 411T130 470T115 542ZM125 542Q125 506 138 474T176 419T232 381T300 367Q336 367 368 381T424 418T462 474T476 542Q476 578 462 610T424 666T368 704T300 718Q264 718 232 704T176 666T139 610T125 542ZM242 641H216V645H258Q269 645 281 645T304 646Q315 646 327 644T348 636T364 622T371 599Q371 576 354 567T317 556V555Q344 550 359 543T377 505Q380 470 382 461T393 451Q399 451 402 454T409 460L412 458Q406 452 400 449T379 445Q364 445 356 450T343 462T338 477T337 493Q336 504 335 514T331 533T320 547T300 552H282V453H307V449H216V453H242V641ZM282 556H293Q318 556 323 568T329 596Q329 620 322 631T294 642Q291 642 288 642T282 641V556Z"  />
<glyph unicode="&#xAF;" horiz-adv-x="278" d="M81 642H400L387 612H68L81 642Z"  />
<glyph unicode="&#xB0;" horiz-adv-x="400" d="M147 593Q147 621 157 645T186 688T229 717T282 728Q310 728 334 718T377 689T406 646T417 593Q417 565 407 541T378 498T335 469T282 458Q254 458 230 468T187 497T158 540T147 593ZM167 593Q167 569 176 548T200 512T237 487T282 478Q306 478 327 487T363 511T388 548T397 593Q397 617 388 638T364 674T327 699T282 708Q258 708 237 699T201 675T176 638T167 593Z"  />
<glyph unicode="&#xB1;" horiz-adv-x="593" d="M286 263H56V281H286V480H306V281H536V263H306V66H286V263ZM56 18H536V0H56V18Z"  />
<glyph unicode="&#xB2;" horiz-adv-x="288" d="M212 334Q229 334 243 339T262 361L270 383H285L256 275H1L-2 283Q24 305 46 325T89 366T130 408T172 452Q209 492 233 532T257 625Q257 651 242 667T197 683Q174 683 161 671T148 641Q148 635 150 628T152 612Q152 601 143 591T116 581Q99 581 92 591T85 615Q85 629 94 643T118 670T156 689T205 697Q228 697 249 691T288 671T315 639T325 593Q325 569 316 549T290 509T253 471T207 434L79 335V334H212Z"  />
<glyph unicode="&#xB3;" horiz-adv-x="288" d="M69 305Q77 290 85 283T111 276Q134 276 153 289T187 324T210 371T218 423Q218 454 205 469T160 485Q149 485 137 483T114 479L111 495Q127 499 151 504T199 525Q225 542 239 569T254 631Q254 683 213 683Q191 683 181 670T169 633Q168 594 133 594Q123 594 115 600T106 620Q107 652 137 674T216 697Q238 697 258 692T293 676T317 650T326 613Q326 592 318 576T291 546T245 522T178 500V499Q226 499 258 478T290 407Q290 377 273 351T228 304T165 273T93 261Q46 261 27 276T8 306Q8 319 17 325T35 331Q46 331 52 327T69 305Z"  />
<glyph unicode="&#xB4;" horiz-adv-x="278" d="M274 695Q280 704 289 712T314 720Q327 720 338 712T349 689Q349 673 336 661L178 529H163L274 695Z"  />
<glyph unicode="&#xB5;" horiz-adv-x="543" d="M260 46Q260 71 272 103L270 105Q257 87 242 66T209 28T167 -1T113 -13Q100 -13 88 -10L-4 -280H-111Q-77 -181 -53 -112T-11 10T22 105T52 191T86 288T131 415H53L58 429H243L130 109Q122 88 118 72T114 47Q114 33 121 22T146 11Q168 11 192 31T239 84T281 155T315 234L382 429H487L370 95Q365 80 361 64T357 34Q357 26 361 18T379 10Q394 10 407 18T432 40T452 66T466 91L477 86Q472 76 463 60T438 27T398 -1T338 -13Q300 -13 280 3T260 46Z"  />
<glyph unicode="&#xB6;" horiz-adv-x="574" d="M665 712L660 698H594L397 147Q383 109 368 73T332 4T282 -60T213 -118Q165 -150 111 -167T10 -184Q-21 -184 -39 -175T-67 -154T-80 -128T-83 -106Q-83 -77 -63 -60T-9 -43Q9 -43 24 -51T39 -76Q39 -87 35 -95T23 -114Q18 -121 14 -127T10 -138Q10 -149 25 -149Q34 -149 59 -137T115 -83Q129 -64 143 -37T170 21T196 84T219 147L264 271Q238 274 209 280T148 309Q104 339 85 386T65 479Q65 503 71 532T96 591T146 645T229 688Q250 695 275 699T328 707T380 711T424 712H665ZM508 698H432L235 147Q208 72 185 16T135 -80T78 -141T5 -170Q77 -168 128 -135T214 -53T272 49T310 147L508 698Z"  />
<glyph unicode="&#xB7;" horiz-adv-x="278" d="M40 257Q40 283 58 301T102 319Q128 319 146 301T164 257Q164 231 146 213T102 195Q76 195 58 213T40 257Z"  />
<glyph unicode="&#xB8;" horiz-adv-x="278" d="M120 -4L44 -78L45 -80Q54 -75 67 -70T98 -65Q131 -65 153 -83T175 -141Q175 -167 165 -187T137 -220T98 -239T52 -246Q23 -246 5 -235T-19 -217L-9 -206Q1 -214 10 -220T35 -226Q52 -226 64 -217T83 -194T94 -162T98 -127Q98 -88 66 -88Q55 -88 47 -91T34 -98L23 -82L101 -4H120Z"  />
<glyph unicode="&#xB9;" horiz-adv-x="288" d="M68 289H112L212 642Q193 630 167 617T119 595L113 609Q158 629 196 650T272 697H295L179 289H229L224 275H64L68 289Z"  />
<glyph unicode="&#xBA;" horiz-adv-x="296" d="M72 539Q72 569 85 598T122 651T176 689T242 704Q265 704 283 695T313 672T331 639T338 600Q338 565 323 535T284 481T230 445T169 431Q123 431 98 462T72 539ZM137 483Q137 442 166 442Q191 442 211 467T245 527T266 596T274 649Q274 693 241 693Q218 693 199 669T167 612T145 542T137 483Z"  />
<glyph unicode="&#xBB;" horiz-adv-x="433" d="M122 74Q156 80 178 98T215 140T235 192T241 242Q241 280 228 302T190 332L194 344Q213 339 236 331T279 308T312 271T325 217Q325 176 308 148T263 102T198 75T122 61V74ZM-33 87Q1 93 23 111T60 153T80 205T86 255Q86 293 73 315T35 345L39 357Q58 352 81 344T124 321T157 284T170 230Q170 189 153 161T108 115T43 88T-33 74V87Z"  />
<glyph unicode="&#xBC;" horiz-adv-x="721" d="M556 712L574 702L142 -20L124 -10L556 712ZM468 14H500L524 103H369L372 117Q397 154 448 220T584 379Q595 392 603 400T618 413T633 420T653 422Q666 422 676 419T686 405Q686 397 678 390T657 372Q604 331 563 297T488 232T431 173T387 117H529L570 269H641L599 117H654L650 103H595L571 14H603L599 0H464L468 14ZM48 289H92L192 642Q173 630 147 617T99 595L93 609Q138 629 176 650T252 697H275L159 289H209L204 275H44L48 289Z"  />
<glyph unicode="&#xBD;" horiz-adv-x="721" d="M562 712L580 702L148 -20L130 -10L562 712ZM54 289H98L198 642Q179 630 153 617T105 595L99 609Q144 629 182 650T258 697H281L165 289H215L210 275H50L54 289ZM564 59Q581 59 595 64T614 86L622 108H637L608 0H353L350 8Q376 30 398 50T441 91T482 133T524 177Q561 217 585 257T609 350Q609 376 594 392T549 408Q526 408 513 396T500 366Q500 360 502 353T504 337Q504 326 495 316T468 306Q451 306 444 316T437 340Q437 354 446 368T470 395T508 414T557 422Q580 422 601 416T640 396T667 364T677 318Q677 294 668 274T642 234T605 196T559 159L431 60V59H564Z"  />
<glyph unicode="&#xBE;" horiz-adv-x="721" d="M569 712L587 702L155 -20L137 -10L569 712ZM480 14H512L536 103H381L384 117Q409 154 460 220T596 379Q607 392 615 400T630 413T645 420T665 422Q678 422 688 419T698 405Q698 397 690 390T669 372Q616 331 575 297T500 232T443 173T399 117H541L582 269H653L611 117H666L662 103H607L583 14H615L611 0H476L480 14ZM71 305Q79 290 87 283T113 276Q136 276 155 289T189 324T212 371T220 423Q220 454 207 469T162 485Q151 485 139 483T116 479L113 495Q129 499 153 504T201 525Q227 542 241 569T256 631Q256 683 215 683Q193 683 183 670T171 633Q170 594 135 594Q125 594 117 600T108 620Q109 652 139 674T218 697Q240 697 260 692T295 676T319 650T328 613Q328 592 320 576T293 546T247 522T180 500V499Q228 499 260 478T292 407Q292 377 275 351T230 304T167 273T95 261Q48 261 29 276T10 306Q10 319 19 325T37 331Q48 331 54 327T71 305Z"  />
<glyph unicode="&#xBF;" horiz-adv-x="444" d="M156 -291Q117 -291 85 -280T29 -247T-8 -198T-21 -136Q-21 -111 -13 -89T10 -47T41 -12T77 16L152 65Q180 83 200 97T234 125T258 155T274 194L287 244H300L290 204Q285 184 281 171T272 148T258 126T237 100L172 23Q124 -34 104 -82T83 -188Q83 -212 90 -229T107 -256T131 -272T159 -277Q199 -277 217 -250T235 -177Q235 -158 248 -145T289 -131Q313 -131 324 -147T336 -179Q336 -199 325 -219T290 -255T234 -281T156 -291ZM384 385Q384 359 366 341T322 323Q296 323 278 341T260 385Q260 411 278 429T322 447Q348 447 366 429T384 385Z"  />
<glyph unicode="&#xC0;" horiz-adv-x="725" d="M494 728H517L547 14H635L631 0H319L323 14H414L402 287H198L2 14H85L81 0H-90L-86 14H-18L494 728ZM402 301L391 551H389L208 301H402ZM545 776H530L420 907Q415 913 412 919T408 935Q408 947 418 958T447 969Q462 969 469 960T479 943L545 776Z"  />
<glyph unicode="&#xC1;" horiz-adv-x="725" d="M494 728H517L547 14H635L631 0H319L323 14H414L402 287H198L2 14H85L81 0H-90L-86 14H-18L494 728ZM402 301L391 551H389L208 301H402ZM596 944Q602 953 611 961T636 969Q649 969 660 961T671 938Q671 922 658 910L500 778H485L596 944Z"  />
<glyph unicode="&#xC2;" horiz-adv-x="725" d="M494 728H517L547 14H635L631 0H319L323 14H414L402 287H198L2 14H85L81 0H-90L-86 14H-18L494 728ZM402 301L391 551H389L208 301H402ZM528 959H579L654 762H639L544 891L381 762H364L528 959Z"  />
<glyph unicode="&#xC3;" horiz-adv-x="725" d="M494 728H517L547 14H635L631 0H319L323 14H414L402 287H198L2 14H85L81 0H-90L-86 14H-18L494 728ZM402 301L391 551H389L208 301H402ZM689 924Q683 901 676 881T658 844T632 818T593 808Q575 808 553 815T509 830T466 846T431 853Q419 853 412 847T400 829L391 802H377Q383 824 390 845T408 882T434 908T473 918Q491 918 513 911T557 896T600 880T635 873Q647 873 654 879T666 897L675 924H689Z"  />
<glyph unicode="&#xC4;" horiz-adv-x="725" d="M494 728H517L547 14H635L631 0H319L323 14H414L402 287H198L2 14H85L81 0H-90L-86 14H-18L494 728ZM402 301L391 551H389L208 301H402ZM550 878Q550 904 569 923T614 942Q640 942 659 923T678 878Q678 852 659 833T614 814Q588 814 569 833T550 878ZM380 878Q380 904 399 923T444 942Q470 942 489 923T508 878Q508 852 489 833T444 814Q418 814 399 833T380 878Z"  />
<glyph unicode="&#xC5;" horiz-adv-x="725" d="M494 728H517L547 14H635L631 0H319L323 14H414L402 287H198L2 14H85L81 0H-90L-86 14H-18L494 728ZM402 301L391 551H389L208 301H402ZM645 877Q645 853 635 832T607 794T567 768T522 758Q484 758 465 781T445 839Q445 861 455 882T483 919T522 946T567 956Q598 956 621 937T645 877ZM592 920Q592 945 570 945Q554 945 542 927T520 884T506 834T501 795Q501 784 505 777T521 769Q537 769 550 786T572 828T587 878T592 920Z"  />
<glyph unicode="&#xC6;" horiz-adv-x="1008" d="M541 699H538L236 308H476L541 699ZM332 0L336 14H426L472 294H226L9 14H94L90 0H-90L-86 14H-11L518 698H432L436 712H966L908 549H894Q898 565 900 582T903 618Q903 652 882 675T803 698H668L615 389H648Q680 389 705 402T749 433T778 469T795 499H809L731 237H717Q718 247 719 259T720 289Q720 304 715 319T699 346T669 367T623 375H613L553 14H654Q699 14 736 37T803 90T852 151T880 196H894L824 0H332Z"  />
<glyph unicode="&#xC7;" horiz-adv-x="661" d="M162 150Q162 110 169 82T192 35T236 9T303 0Q349 0 386 16T453 55T502 105T535 154L549 147Q543 135 526 109T478 55T403 7T299 -14Q296 -14 293 -14T287 -13L221 -78L222 -80Q231 -75 244 -70T275 -65Q308 -65 330 -83T352 -141Q352 -167 342 -187T314 -220T275 -239T229 -246Q200 -246 182 -235T158 -217L168 -206Q178 -214 187 -220T212 -226Q229 -226 241 -217T260 -194T271 -162T275 -127Q275 -88 243 -88Q232 -88 224 -91T211 -98L200 -82L269 -12Q209 -7 166 18T96 83T57 170T44 268Q44 331 63 389T115 498T191 591T284 662T384 708T485 725Q513 725 537 719T584 706T624 692T659 686Q675 686 685 694T701 715L716 712L647 519H634Q636 529 637 548T638 587Q638 619 623 642T586 681T536 703T483 711Q428 711 383 681T303 601T241 490T197 366T171 246T162 150Z"  />
<glyph unicode="&#xC8;" horiz-adv-x="691" d="M243 698H145L149 712H707L646 542H632Q636 553 640 574T644 614Q644 651 623 674T544 698H373L262 389H316Q352 389 380 405T428 443T461 486T479 516H493L388 225H374Q379 237 383 258T387 298Q387 336 359 355T285 375H257L128 14H322Q367 14 404 37T471 90T520 151T548 196H562L492 0H-92L-88 14H-2L243 698ZM520 776H505L395 907Q390 913 387 919T383 935Q383 947 393 958T422 969Q437 969 444 960T454 943L520 776Z"  />
<glyph unicode="&#xC9;" horiz-adv-x="691" d="M243 698H145L149 712H707L646 542H632Q636 553 640 574T644 614Q644 651 623 674T544 698H373L262 389H316Q352 389 380 405T428 443T461 486T479 516H493L388 225H374Q379 237 383 258T387 298Q387 336 359 355T285 375H257L128 14H322Q367 14 404 37T471 90T520 151T548 196H562L492 0H-92L-88 14H-2L243 698ZM574 944Q580 953 589 961T614 969Q627 969 638 961T649 938Q649 922 636 910L478 778H463L574 944Z"  />
<glyph unicode="&#xCA;" horiz-adv-x="691" d="M243 698H145L149 712H707L646 542H632Q636 553 640 574T644 614Q644 651 623 674T544 698H373L262 389H316Q352 389 380 405T428 443T461 486T479 516H493L388 225H374Q379 237 383 258T387 298Q387 336 359 355T285 375H257L128 14H322Q367 14 404 37T471 90T520 151T548 196H562L492 0H-92L-88 14H-2L243 698ZM486 959H537L612 762H597L502 891L339 762H322L486 959Z"  />
<glyph unicode="&#xCB;" horiz-adv-x="691" d="M243 698H145L149 712H707L646 542H632Q636 553 640 574T644 614Q644 651 623 674T544 698H373L262 389H316Q352 389 380 405T428 443T461 486T479 516H493L388 225H374Q379 237 383 258T387 298Q387 336 359 355T285 375H257L128 14H322Q367 14 404 37T471 90T520 151T548 196H562L492 0H-92L-88 14H-2L243 698ZM510 878Q510 904 529 923T574 942Q600 942 619 923T638 878Q638 852 619 833T574 814Q548 814 529 833T510 878ZM340 878Q340 904 359 923T404 942Q430 942 449 923T468 878Q468 852 449 833T404 814Q378 814 359 833T340 878Z"  />
<glyph unicode="&#xCC;" horiz-adv-x="379" d="M243 698H146L150 712H464L460 698H373L128 14H224L220 0H-92L-88 14H-3L243 698ZM385 776H370L260 907Q255 913 252 919T248 935Q248 947 258 958T287 969Q302 969 309 960T319 943L385 776Z"  />
<glyph unicode="&#xCD;" horiz-adv-x="379" d="M243 698H146L150 712H464L460 698H373L128 14H224L220 0H-92L-88 14H-3L243 698ZM431 944Q437 953 446 961T471 969Q484 969 495 961T506 938Q506 922 493 910L335 778H320L431 944Z"  />
<glyph unicode="&#xCE;" horiz-adv-x="379" d="M243 698H146L150 712H464L460 698H373L128 14H224L220 0H-92L-88 14H-3L243 698ZM344 959H395L470 762H455L360 891L197 762H180L344 959Z"  />
<glyph unicode="&#xCF;" horiz-adv-x="379" d="M243 698H146L150 712H464L460 698H373L128 14H224L220 0H-92L-88 14H-3L243 698ZM372 878Q372 904 391 923T436 942Q462 942 481 923T500 878Q500 852 481 833T436 814Q410 814 391 833T372 878ZM202 878Q202 904 221 923T266 942Q292 942 311 923T330 878Q330 852 311 833T266 814Q240 814 221 833T202 878Z"  />
<glyph unicode="&#xD0;" horiz-adv-x="794" d="M127 375H30L35 389H132L243 698H146L150 712H434Q515 712 574 691T672 633T728 545T747 436Q747 349 710 270T605 129T441 32T228 -4Q207 -4 186 -4T144 -2Q122 -1 101 -1T59 0H-92L-88 14H-3L127 375ZM129 15Q147 14 168 12T209 10Q260 10 302 21T396 64Q450 98 492 150T563 263T608 393T623 527Q623 584 600 621T544 675Q520 687 492 692T419 698H373L262 389H411L406 375H257L129 15Z"  />
<glyph unicode="&#xD1;" horiz-adv-x="701" d="M232 698H136L140 712H357L507 202H509L687 698H590L594 712H792L788 698H703L451 -14H437L236 662H234L3 14H99L95 0H-101L-97 14H-12L232 698ZM681 924Q675 901 668 881T650 844T624 818T585 808Q567 808 545 815T501 830T458 846T423 853Q411 853 404 847T392 829L383 802H369Q375 824 382 845T400 882T426 908T465 918Q483 918 505 911T549 896T592 880T627 873Q639 873 646 879T658 897L667 924H681Z"  />
<glyph unicode="&#xD2;" horiz-adv-x="794" d="M44 262Q44 356 82 440T183 587T328 688T497 725Q555 725 601 702T680 641T729 552T747 446Q747 359 711 276T611 129T465 25T289 -14Q241 -14 197 3T119 55T65 141T44 262ZM162 144Q162 116 168 90T190 44T230 12T295 0Q346 0 390 31T472 111T537 223T585 347T615 466T625 561Q625 638 588 674T495 711Q447 711 403 681T322 603T256 493T205 368T173 246T162 144ZM572 776H557L447 907Q442 913 439 919T435 935Q435 947 445 958T474 969Q489 969 496 960T506 943L572 776Z"  />
<glyph unicode="&#xD3;" horiz-adv-x="794" d="M44 262Q44 356 82 440T183 587T328 688T497 725Q555 725 601 702T680 641T729 552T747 446Q747 359 711 276T611 129T465 25T289 -14Q241 -14 197 3T119 55T65 141T44 262ZM162 144Q162 116 168 90T190 44T230 12T295 0Q346 0 390 31T472 111T537 223T585 347T615 466T625 561Q625 638 588 674T495 711Q447 711 403 681T322 603T256 493T205 368T173 246T162 144ZM620 944Q626 953 635 961T660 969Q673 969 684 961T695 938Q695 922 682 910L524 778H509L620 944Z"  />
<glyph unicode="&#xD4;" horiz-adv-x="794" d="M44 262Q44 356 82 440T183 587T328 688T497 725Q555 725 601 702T680 641T729 552T747 446Q747 359 711 276T611 129T465 25T289 -14Q241 -14 197 3T119 55T65 141T44 262ZM162 144Q162 116 168 90T190 44T230 12T295 0Q346 0 390 31T472 111T537 223T585 347T615 466T625 561Q625 638 588 674T495 711Q447 711 403 681T322 603T256 493T205 368T173 246T162 144ZM552 959H603L678 762H663L568 891L405 762H388L552 959Z"  />
<glyph unicode="&#xD5;" horiz-adv-x="794" d="M44 262Q44 356 82 440T183 587T328 688T497 725Q555 725 601 702T680 641T729 552T747 446Q747 359 711 276T611 129T465 25T289 -14Q241 -14 197 3T119 55T65 141T44 262ZM162 144Q162 116 168 90T190 44T230 12T295 0Q346 0 390 31T472 111T537 223T585 347T615 466T625 561Q625 638 588 674T495 711Q447 711 403 681T322 603T256 493T205 368T173 246T162 144ZM721 924Q715 901 708 881T690 844T664 818T625 808Q607 808 585 815T541 830T498 846T463 853Q451 853 444 847T432 829L423 802H409Q415 824 422 845T440 882T466 908T505 918Q523 918 545 911T589 896T632 880T667 873Q679 873 686 879T698 897L707 924H721Z"  />
<glyph unicode="&#xD6;" horiz-adv-x="794" d="M44 262Q44 356 82 440T183 587T328 688T497 725Q555 725 601 702T680 641T729 552T747 446Q747 359 711 276T611 129T465 25T289 -14Q241 -14 197 3T119 55T65 141T44 262ZM162 144Q162 116 168 90T190 44T230 12T295 0Q346 0 390 31T472 111T537 223T585 347T615 466T625 561Q625 638 588 674T495 711Q447 711 403 681T322 603T256 493T205 368T173 246T162 144ZM587 878Q587 904 606 923T651 942Q677 942 696 923T715 878Q715 852 696 833T651 814Q625 814 606 833T587 878ZM417 878Q417 904 436 923T481 942Q507 942 526 923T545 878Q545 852 526 833T481 814Q455 814 436 833T417 878Z"  />
<glyph unicode="&#xD7;" horiz-adv-x="593" d="M296 227L88 19L75 33L282 240L75 447L88 461L296 253L504 461L517 447L310 240L517 33L504 19L296 227Z"  />
<glyph unicode="&#xD8;" horiz-adv-x="794" d="M44 262Q44 356 82 440T183 587T328 688T497 725Q554 725 600 702L649 779L663 771L615 695Q646 677 671 651T712 593T738 523T747 446Q747 359 711 276T611 129T465 25T289 -14Q233 -14 184 9L134 -70L120 -62L169 16Q114 47 79 108T44 262ZM625 561Q625 595 618 620T596 665L199 33Q215 18 238 9T295 0Q346 0 390 31T472 111T537 223T585 347T615 466T625 561ZM162 144Q162 117 168 92T188 46L585 677Q551 711 495 711Q447 711 403 681T322 603T256 493T205 368T173 246T162 144Z"  />
<glyph unicode="&#xD9;" horiz-adv-x="776" d="M147 712H460L456 698H369L225 298Q210 256 202 219T194 144Q194 75 232 40T338 4Q395 4 439 25T515 81T569 157T604 241L746 698H650L654 712H852L848 698H762L615 228Q576 103 501 45T311 -14Q257 -14 214 1T142 42T98 105T82 183Q82 228 91 269T115 352L239 698H143L147 712ZM565 776H550L440 907Q435 913 432 919T428 935Q428 947 438 958T467 969Q482 969 489 960T499 943L565 776Z"  />
<glyph unicode="&#xDA;" horiz-adv-x="776" d="M147 712H460L456 698H369L225 298Q210 256 202 219T194 144Q194 75 232 40T338 4Q395 4 439 25T515 81T569 157T604 241L746 698H650L654 712H852L848 698H762L615 228Q576 103 501 45T311 -14Q257 -14 214 1T142 42T98 105T82 183Q82 228 91 269T115 352L239 698H143L147 712ZM630 944Q636 953 645 961T670 969Q683 969 694 961T705 938Q705 922 692 910L534 778H519L630 944Z"  />
<glyph unicode="&#xDB;" horiz-adv-x="776" d="M147 712H460L456 698H369L225 298Q210 256 202 219T194 144Q194 75 232 40T338 4Q395 4 439 25T515 81T569 157T604 241L746 698H650L654 712H852L848 698H762L615 228Q576 103 501 45T311 -14Q257 -14 214 1T142 42T98 105T82 183Q82 228 91 269T115 352L239 698H143L147 712ZM570 959H621L696 762H681L586 891L423 762H406L570 959Z"  />
<glyph unicode="&#xDC;" horiz-adv-x="776" d="M147 712H460L456 698H369L225 298Q210 256 202 219T194 144Q194 75 232 40T338 4Q395 4 439 25T515 81T569 157T604 241L746 698H650L654 712H852L848 698H762L615 228Q576 103 501 45T311 -14Q257 -14 214 1T142 42T98 105T82 183Q82 228 91 269T115 352L239 698H143L147 712ZM582 878Q582 904 601 923T646 942Q672 942 691 923T710 878Q710 852 691 833T646 814Q620 814 601 833T582 878ZM412 878Q412 904 431 923T476 942Q502 942 521 923T540 878Q540 852 521 833T476 814Q450 814 431 833T412 878Z"  />
<glyph unicode="&#xDD;" horiz-adv-x="657" d="M154 14L264 323L193 698H102L106 712H418L414 698H321L386 355L691 698H611L615 712H775L771 698H711L393 339L276 14H373L369 0H56L60 14H154ZM577 944Q583 953 592 961T617 969Q630 969 641 961T652 938Q652 922 639 910L481 778H466L577 944Z"  />
<glyph unicode="&#xDE;" horiz-adv-x="643" d="M190 200Q218 193 252 193Q303 193 343 214T412 271T456 352T471 446Q471 512 431 544T329 577H324L190 200ZM363 591Q423 591 468 577T543 537T588 479T603 408Q603 351 573 309T494 237T386 194T265 179Q238 179 220 181T185 186L122 14H218L214 0H-98L-94 14H-9L237 698H140L144 712H458L454 698H367L329 591H363Z"  />
<glyph unicode="&#xDF;" horiz-adv-x="570" d="M-176 -256Q-221 -256 -247 -231T-273 -171Q-273 -141 -256 -131T-220 -121Q-184 -121 -184 -150Q-184 -172 -192 -185T-201 -213Q-201 -226 -195 -234T-171 -242Q-124 -242 -85 -181T-10 -5L136 478Q177 614 249 687T437 760Q461 760 482 753T521 730T548 692T558 639Q558 596 537 562T471 499L426 470Q408 459 396 446T384 414Q384 397 390 374T413 314L460 209Q470 187 477 166T485 124Q485 92 469 67T427 24T368 -3T299 -13Q276 -13 255 -8T218 9T192 36T182 73Q182 99 197 114T235 129Q249 129 257 121T266 100Q266 86 260 71T254 42Q254 22 267 11T302 0Q341 0 365 22T390 79Q390 103 379 132T353 195L320 269Q307 298 301 315T295 353Q295 387 316 414T396 474L446 502Q498 531 521 564T544 640Q544 662 536 681T514 715T482 738T443 746Q416 746 393 736T349 701T310 639T275 546L119 38Q99 -27 66 -81T-7 -174T-90 -234T-176 -256Z"  />
<glyph unicode="&#xE0;" horiz-adv-x="541" d="M377 126Q368 100 362 78T356 36Q356 10 378 10Q396 10 411 21T438 46T457 74T467 94L478 89Q473 78 464 61T438 27T397 -1T336 -13Q301 -13 280 4T259 52Q259 60 261 75T268 104H266Q254 87 237 67T199 29T154 -1T102 -13Q54 -13 23 20T-8 117Q-8 178 22 236T99 340T197 414T295 442Q324 442 342 424T362 377H363L382 429H486L377 126ZM332 293Q350 342 350 363Q350 387 338 405T297 423Q272 423 248 404T201 355T159 286T126 207T103 129T95 63Q95 34 102 21T127 8Q147 8 171 25T218 66T258 115T281 155L332 293ZM365 529H350L240 660Q235 666 232 672T228 688Q228 700 238 711T267 722Q282 722 289 713T299 696L365 529Z"  />
<glyph unicode="&#xE1;" horiz-adv-x="541" d="M377 126Q368 100 362 78T356 36Q356 10 378 10Q396 10 411 21T438 46T457 74T467 94L478 89Q473 78 464 61T438 27T397 -1T336 -13Q301 -13 280 4T259 52Q259 60 261 75T268 104H266Q254 87 237 67T199 29T154 -1T102 -13Q54 -13 23 20T-8 117Q-8 178 22 236T99 340T197 414T295 442Q324 442 342 424T362 377H363L382 429H486L377 126ZM332 293Q350 342 350 363Q350 387 338 405T297 423Q272 423 248 404T201 355T159 286T126 207T103 129T95 63Q95 34 102 21T127 8Q147 8 171 25T218 66T258 115T281 155L332 293ZM407 695Q413 704 422 712T447 720Q460 720 471 712T482 689Q482 673 469 661L311 529H296L407 695Z"  />
<glyph unicode="&#xE2;" horiz-adv-x="541" d="M377 126Q368 100 362 78T356 36Q356 10 378 10Q396 10 411 21T438 46T457 74T467 94L478 89Q473 78 464 61T438 27T397 -1T336 -13Q301 -13 280 4T259 52Q259 60 261 75T268 104H266Q254 87 237 67T199 29T154 -1T102 -13Q54 -13 23 20T-8 117Q-8 178 22 236T99 340T197 414T295 442Q324 442 342 424T362 377H363L382 429H486L377 126ZM332 293Q350 342 350 363Q350 387 338 405T297 423Q272 423 248 404T201 355T159 286T126 207T103 129T95 63Q95 34 102 21T127 8Q147 8 171 25T218 66T258 115T281 155L332 293ZM343 726H394L469 529H454L359 658L196 529H179L343 726Z"  />
<glyph unicode="&#xE3;" horiz-adv-x="541" d="M377 126Q368 100 362 78T356 36Q356 10 378 10Q396 10 411 21T438 46T457 74T467 94L478 89Q473 78 464 61T438 27T397 -1T336 -13Q301 -13 280 4T259 52Q259 60 261 75T268 104H266Q254 87 237 67T199 29T154 -1T102 -13Q54 -13 23 20T-8 117Q-8 178 22 236T99 340T197 414T295 442Q324 442 342 424T362 377H363L382 429H486L377 126ZM332 293Q350 342 350 363Q350 387 338 405T297 423Q272 423 248 404T201 355T159 286T126 207T103 129T95 63Q95 34 102 21T127 8Q147 8 171 25T218 66T258 115T281 155L332 293ZM514 691Q508 668 501 648T483 611T457 585T418 575Q400 575 378 582T334 597T291 613T256 620Q244 620 237 614T225 596L216 569H202Q208 591 215 612T233 649T259 675T298 685Q316 685 338 678T382 663T425 647T460 640Q472 640 479 646T491 664L500 691H514Z"  />
<glyph unicode="&#xE4;" horiz-adv-x="541" d="M377 126Q368 100 362 78T356 36Q356 10 378 10Q396 10 411 21T438 46T457 74T467 94L478 89Q473 78 464 61T438 27T397 -1T336 -13Q301 -13 280 4T259 52Q259 60 261 75T268 104H266Q254 87 237 67T199 29T154 -1T102 -13Q54 -13 23 20T-8 117Q-8 178 22 236T99 340T197 414T295 442Q324 442 342 424T362 377H363L382 429H486L377 126ZM332 293Q350 342 350 363Q350 387 338 405T297 423Q272 423 248 404T201 355T159 286T126 207T103 129T95 63Q95 34 102 21T127 8Q147 8 171 25T218 66T258 115T281 155L332 293ZM362 624Q362 650 381 669T426 688Q452 688 471 669T490 624Q490 598 471 579T426 560Q400 560 381 579T362 624ZM192 624Q192 650 211 669T256 688Q282 688 301 669T320 624Q320 598 301 579T256 560Q230 560 211 579T192 624Z"  />
<glyph unicode="&#xE5;" horiz-adv-x="541" d="M377 126Q368 100 362 78T356 36Q356 10 378 10Q396 10 411 21T438 46T457 74T467 94L478 89Q473 78 464 61T438 27T397 -1T336 -13Q301 -13 280 4T259 52Q259 60 261 75T268 104H266Q254 87 237 67T199 29T154 -1T102 -13Q54 -13 23 20T-8 117Q-8 178 22 236T99 340T197 414T295 442Q324 442 342 424T362 377H363L382 429H486L377 126ZM332 293Q350 342 350 363Q350 387 338 405T297 423Q272 423 248 404T201 355T159 286T126 207T103 129T95 63Q95 34 102 21T127 8Q147 8 171 25T218 66T258 115T281 155L332 293ZM468 649Q468 625 458 604T430 566T390 540T345 530Q307 530 288 553T268 611Q268 633 278 654T306 691T345 718T390 728Q421 728 444 709T468 649ZM415 692Q415 717 393 717Q377 717 365 699T343 656T329 606T324 567Q324 556 328 549T344 541Q360 541 373 558T395 600T410 650T415 692Z"  />
<glyph unicode="&#xE6;" horiz-adv-x="729" d="M468 379L470 378Q490 407 518 424T585 442Q607 442 628 437T664 422T689 396T699 360Q699 333 685 313T649 279T600 257T546 243T496 236T460 234Q450 234 440 234T418 236Q407 204 399 167T390 93Q390 44 411 25T467 5Q500 5 526 17T573 47T606 81T627 109L639 101Q634 94 621 75T584 37T528 2T451 -13Q419 -13 391 -4T340 23T304 69T287 132H286Q239 62 195 25T102 -13Q54 -13 23 24T-8 125Q-8 186 22 243T99 344T197 415T295 442Q324 442 342 424T362 377H363L382 429H486L468 379ZM332 293Q350 342 350 363Q350 387 338 405T297 423Q272 423 248 404T201 355T159 286T126 207T103 129T95 63Q95 34 102 21T127 8Q147 8 171 25T218 66T258 115T281 155L332 293ZM605 384Q605 406 595 417T567 428Q541 428 519 410T478 365T445 307T423 250Q429 249 437 249T453 248Q487 248 515 258T563 287T594 330T605 384Z"  />
<glyph unicode="&#xE7;" horiz-adv-x="420" d="M280 442Q297 442 316 437T351 422T377 396T388 359Q388 339 381 325T363 301T340 288T318 284Q301 284 290 293T279 321Q279 334 285 344T297 363T310 381T316 402Q316 414 305 421T274 429Q248 429 225 411T181 364T145 297T118 222T100 149T94 89Q94 49 113 27T170 5Q200 5 224 15T268 40T303 73T331 109L343 101Q331 83 314 63T274 26T221 -2T154 -13L87 -78L88 -80Q97 -75 110 -70T141 -65Q174 -65 196 -83T218 -141Q218 -167 208 -187T180 -220T141 -239T95 -246Q66 -246 48 -235T24 -217L34 -206Q44 -214 53 -220T78 -226Q95 -226 107 -217T126 -194T137 -162T141 -127Q141 -88 109 -88Q98 -88 90 -91T77 -98L66 -82L136 -12Q105 -9 79 3T33 34T2 80T-9 139Q-9 186 14 239T77 338T169 412T280 442Z"  />
<glyph unicode="&#xE8;" horiz-adv-x="433" d="M343 101Q338 94 325 75T288 37T232 2T155 -13Q117 -13 87 -2T36 30T3 79T-9 142Q-9 187 14 239T77 337T167 412T275 442Q302 442 325 437T365 422T393 396T403 360Q403 333 389 313T353 279T304 257T250 243T200 236T164 234Q154 234 144 234T122 236Q111 204 103 167T94 93Q94 44 115 25T171 5Q204 5 230 17T277 47T310 81T331 109L343 101ZM309 384Q309 406 299 417T271 428Q245 428 223 410T182 365T149 307T127 250Q133 249 141 249T157 248Q191 248 219 258T267 287T298 330T309 384ZM308 529H293L183 660Q178 666 175 672T171 688Q171 700 181 711T210 722Q225 722 232 713T242 696L308 529Z"  />
<glyph unicode="&#xE9;" horiz-adv-x="433" d="M343 101Q338 94 325 75T288 37T232 2T155 -13Q117 -13 87 -2T36 30T3 79T-9 142Q-9 187 14 239T77 337T167 412T275 442Q302 442 325 437T365 422T393 396T403 360Q403 333 389 313T353 279T304 257T250 243T200 236T164 234Q154 234 144 234T122 236Q111 204 103 167T94 93Q94 44 115 25T171 5Q204 5 230 17T277 47T310 81T331 109L343 101ZM309 384Q309 406 299 417T271 428Q245 428 223 410T182 365T149 307T127 250Q133 249 141 249T157 248Q191 248 219 258T267 287T298 330T309 384ZM362 695Q368 704 377 712T402 720Q415 720 426 712T437 689Q437 673 424 661L266 529H251L362 695Z"  />
<glyph unicode="&#xEA;" horiz-adv-x="433" d="M343 101Q338 94 325 75T288 37T232 2T155 -13Q117 -13 87 -2T36 30T3 79T-9 142Q-9 187 14 239T77 337T167 412T275 442Q302 442 325 437T365 422T393 396T403 360Q403 333 389 313T353 279T304 257T250 243T200 236T164 234Q154 234 144 234T122 236Q111 204 103 167T94 93Q94 44 115 25T171 5Q204 5 230 17T277 47T310 81T331 109L343 101ZM309 384Q309 406 299 417T271 428Q245 428 223 410T182 365T149 307T127 250Q133 249 141 249T157 248Q191 248 219 258T267 287T298 330T309 384ZM287 726H338L413 529H398L303 658L140 529H123L287 726Z"  />
<glyph unicode="&#xEB;" horiz-adv-x="433" d="M343 101Q338 94 325 75T288 37T232 2T155 -13Q117 -13 87 -2T36 30T3 79T-9 142Q-9 187 14 239T77 337T167 412T275 442Q302 442 325 437T365 422T393 396T403 360Q403 333 389 313T353 279T304 257T250 243T200 236T164 234Q154 234 144 234T122 236Q111 204 103 167T94 93Q94 44 115 25T171 5Q204 5 230 17T277 47T310 81T331 109L343 101ZM309 384Q309 406 299 417T271 428Q245 428 223 410T182 365T149 307T127 250Q133 249 141 249T157 248Q191 248 219 258T267 287T298 330T309 384ZM314 624Q314 650 333 669T378 688Q404 688 423 669T442 624Q442 598 423 579T378 560Q352 560 333 579T314 624ZM144 624Q144 650 163 669T208 688Q234 688 253 669T272 624Q272 598 253 579T208 560Q182 560 163 579T144 624Z"  />
<glyph unicode="&#xEC;" horiz-adv-x="298" d="M122 415H43L47 429H230L115 97Q110 83 106 66T101 34Q101 23 106 17T124 10Q139 10 153 18T179 40T200 66T214 91L225 86Q220 76 211 60T186 27T145 -1T85 -13Q50 -13 28 5T5 55Q5 71 8 85T16 116L122 415ZM237 529H222L112 660Q107 666 104 672T100 688Q100 700 110 711T139 722Q154 722 161 713T171 696L237 529Z"  />
<glyph unicode="&#xED;" horiz-adv-x="298" d="M122 415H43L47 429H230L115 97Q110 83 106 66T101 34Q101 23 106 17T124 10Q139 10 153 18T179 40T200 66T214 91L225 86Q220 76 211 60T186 27T145 -1T85 -13Q50 -13 28 5T5 55Q5 71 8 85T16 116L122 415ZM286 695Q292 704 301 712T326 720Q339 720 350 712T361 689Q361 673 348 661L190 529H175L286 695Z"  />
<glyph unicode="&#xEE;" horiz-adv-x="298" d="M122 415H43L47 429H230L115 97Q110 83 106 66T101 34Q101 23 106 17T124 10Q139 10 153 18T179 40T200 66T214 91L225 86Q220 76 211 60T186 27T145 -1T85 -13Q50 -13 28 5T5 55Q5 71 8 85T16 116L122 415ZM216 726H267L342 529H327L232 658L69 529H52L216 726Z"  />
<glyph unicode="&#xEF;" horiz-adv-x="298" d="M122 415H43L47 429H230L115 97Q110 83 106 66T101 34Q101 23 106 17T124 10Q139 10 153 18T179 40T200 66T214 91L225 86Q220 76 211 60T186 27T145 -1T85 -13Q50 -13 28 5T5 55Q5 71 8 85T16 116L122 415ZM236 624Q236 650 255 669T300 688Q326 688 345 669T364 624Q364 598 345 579T300 560Q274 560 255 579T236 624ZM66 624Q66 650 85 669T130 688Q156 688 175 669T194 624Q194 598 175 579T130 560Q104 560 85 579T66 624Z"  />
<glyph unicode="&#xF0;" horiz-adv-x="491" d="M452 652L322 615Q375 546 405 468T435 304Q435 220 406 160T333 61T241 5T154 -13Q120 -13 91 -1T41 34T7 90T-6 165Q-6 222 19 272T84 360T172 420T267 442Q286 442 304 435T330 414L332 416Q320 515 277 602L134 561L131 575L271 615Q237 678 187 734L197 745Q229 717 258 688T313 627L448 666L452 652ZM271 428Q246 428 223 409T180 359T144 290T117 212T99 136T93 73Q93 35 108 18T149 1Q177 1 202 21T247 73T282 145T309 224T325 296T331 351Q331 388 317 408T271 428Z"  />
<glyph unicode="&#xF1;" horiz-adv-x="548" d="M368 95Q363 80 359 64T355 34Q355 26 359 18T377 10Q392 10 405 18T430 40T450 66T464 91L475 86Q470 76 461 60T436 27T396 -1T336 -13Q298 -13 276 4T253 54Q253 70 256 82T265 111L345 334Q354 359 354 378Q354 389 348 400T324 411Q307 411 286 397T242 358T199 296T161 214L84 0H-20L125 415H48L52 429H231L191 311H193Q232 376 270 405T359 435Q399 435 425 413T451 357Q451 340 446 324T433 284L368 95ZM504 691Q498 668 491 648T473 611T447 585T408 575Q390 575 368 582T324 597T281 613T246 620Q234 620 227 614T215 596L206 569H192Q198 591 205 612T223 649T249 675T288 685Q306 685 328 678T372 663T415 647T450 640Q462 640 469 646T481 664L490 691H504Z"  />
<glyph unicode="&#xF2;" horiz-adv-x="491" d="M-6 165Q-6 216 17 266T78 355T167 418T274 442Q313 442 342 427T391 388T421 332T431 268Q431 211 407 160T343 71T254 10T154 -13Q116 -13 87 0T37 38T5 94T-6 165ZM93 73Q93 35 108 18T149 1Q177 1 202 21T247 73T282 145T309 224T325 296T331 351Q331 388 317 408T271 428Q246 428 223 409T180 359T144 290T117 212T99 136T93 73ZM341 529H326L216 660Q211 666 208 672T204 688Q204 700 214 711T243 722Q258 722 265 713T275 696L341 529Z"  />
<glyph unicode="&#xF3;" horiz-adv-x="491" d="M-6 165Q-6 216 17 266T78 355T167 418T274 442Q313 442 342 427T391 388T421 332T431 268Q431 211 407 160T343 71T254 10T154 -13Q116 -13 87 0T37 38T5 94T-6 165ZM93 73Q93 35 108 18T149 1Q177 1 202 21T247 73T282 145T309 224T325 296T331 351Q331 388 317 408T271 428Q246 428 223 409T180 359T144 290T117 212T99 136T93 73ZM373 695Q379 704 388 712T413 720Q426 720 437 712T448 689Q448 673 435 661L277 529H262L373 695Z"  />
<glyph unicode="&#xF4;" horiz-adv-x="491" d="M-6 165Q-6 216 17 266T78 355T167 418T274 442Q313 442 342 427T391 388T421 332T431 268Q431 211 407 160T343 71T254 10T154 -13Q116 -13 87 0T37 38T5 94T-6 165ZM93 73Q93 35 108 18T149 1Q177 1 202 21T247 73T282 145T309 224T325 296T331 351Q331 388 317 408T271 428Q246 428 223 409T180 359T144 290T117 212T99 136T93 73ZM317 726H368L443 529H428L333 658L170 529H153L317 726Z"  />
<glyph unicode="&#xF5;" horiz-adv-x="491" d="M-6 165Q-6 216 17 266T78 355T167 418T274 442Q313 442 342 427T391 388T421 332T431 268Q431 211 407 160T343 71T254 10T154 -13Q116 -13 87 0T37 38T5 94T-6 165ZM93 73Q93 35 108 18T149 1Q177 1 202 21T247 73T282 145T309 224T325 296T331 351Q331 388 317 408T271 428Q246 428 223 409T180 359T144 290T117 212T99 136T93 73ZM481 691Q475 668 468 648T450 611T424 585T385 575Q367 575 345 582T301 597T258 613T223 620Q211 620 204 614T192 596L183 569H169Q175 591 182 612T200 649T226 675T265 685Q283 685 305 678T349 663T392 647T427 640Q439 640 446 646T458 664L467 691H481Z"  />
<glyph unicode="&#xF6;" horiz-adv-x="491" d="M-6 165Q-6 216 17 266T78 355T167 418T274 442Q313 442 342 427T391 388T421 332T431 268Q431 211 407 160T343 71T254 10T154 -13Q116 -13 87 0T37 38T5 94T-6 165ZM93 73Q93 35 108 18T149 1Q177 1 202 21T247 73T282 145T309 224T325 296T331 351Q331 388 317 408T271 428Q246 428 223 409T180 359T144 290T117 212T99 136T93 73ZM344 624Q344 650 363 669T408 688Q434 688 453 669T472 624Q472 598 453 579T408 560Q382 560 363 579T344 624ZM174 624Q174 650 193 669T238 688Q264 688 283 669T302 624Q302 598 283 579T238 560Q212 560 193 579T174 624Z"  />
<glyph unicode="&#xF7;" horiz-adv-x="650" d="M325 389Q302 389 288 404T273 444Q273 469 287 484T325 499Q349 499 363 484T378 444Q378 420 364 405T325 389ZM75 238V296H576V238H75ZM325 37Q302 37 288 52T273 91Q273 116 287 131T325 147Q349 147 363 132T378 91Q378 68 364 53T325 37Z"  />
<glyph unicode="&#xF8;" horiz-adv-x="491" d="M-6 165Q-6 216 17 266T78 355T167 418T274 442Q307 442 336 429L377 495L390 488L349 423Q390 400 410 358T431 268Q431 211 407 160T343 71T254 10T154 -13Q118 -13 87 0L45 -67L32 -60L74 7Q36 30 15 71T-6 165ZM331 351Q331 373 327 386L103 26Q115 1 149 1Q177 1 202 21T247 73T282 145T309 224T325 296T331 351ZM271 428Q246 428 223 409T180 359T144 290T117 212T99 136T93 73Q93 55 96 43L320 403Q304 428 271 428Z"  />
<glyph unicode="&#xF9;" horiz-adv-x="532" d="M249 46Q249 71 261 103L259 105Q246 87 231 66T198 28T156 -1T102 -13Q83 -13 66 -8T35 7T13 31T5 66Q5 86 11 104T22 138L120 415H42L47 429H232L119 109Q111 88 107 72T103 47Q103 33 110 22T135 11Q157 11 181 31T228 84T270 155T304 234L371 429H476L359 95Q354 80 350 64T346 34Q346 26 350 18T368 10Q383 10 396 18T421 40T441 66T455 91L466 86Q461 76 452 60T427 27T387 -1T327 -13Q289 -13 269 3T249 46ZM358 529H343L233 660Q228 666 225 672T221 688Q221 700 231 711T260 722Q275 722 282 713T292 696L358 529Z"  />
<glyph unicode="&#xFA;" horiz-adv-x="532" d="M249 46Q249 71 261 103L259 105Q246 87 231 66T198 28T156 -1T102 -13Q83 -13 66 -8T35 7T13 31T5 66Q5 86 11 104T22 138L120 415H42L47 429H232L119 109Q111 88 107 72T103 47Q103 33 110 22T135 11Q157 11 181 31T228 84T270 155T304 234L371 429H476L359 95Q354 80 350 64T346 34Q346 26 350 18T368 10Q383 10 396 18T421 40T441 66T455 91L466 86Q461 76 452 60T427 27T387 -1T327 -13Q289 -13 269 3T249 46ZM405 695Q411 704 420 712T445 720Q458 720 469 712T480 689Q480 673 467 661L309 529H294L405 695Z"  />
<glyph unicode="&#xFB;" horiz-adv-x="532" d="M249 46Q249 71 261 103L259 105Q246 87 231 66T198 28T156 -1T102 -13Q83 -13 66 -8T35 7T13 31T5 66Q5 86 11 104T22 138L120 415H42L47 429H232L119 109Q111 88 107 72T103 47Q103 33 110 22T135 11Q157 11 181 31T228 84T270 155T304 234L371 429H476L359 95Q354 80 350 64T346 34Q346 26 350 18T368 10Q383 10 396 18T421 40T441 66T455 91L466 86Q461 76 452 60T427 27T387 -1T327 -13Q289 -13 269 3T249 46ZM344 726H395L470 529H455L360 658L197 529H180L344 726Z"  />
<glyph unicode="&#xFC;" horiz-adv-x="532" d="M249 46Q249 71 261 103L259 105Q246 87 231 66T198 28T156 -1T102 -13Q83 -13 66 -8T35 7T13 31T5 66Q5 86 11 104T22 138L120 415H42L47 429H232L119 109Q111 88 107 72T103 47Q103 33 110 22T135 11Q157 11 181 31T228 84T270 155T304 234L371 429H476L359 95Q354 80 350 64T346 34Q346 26 350 18T368 10Q383 10 396 18T421 40T441 66T455 91L466 86Q461 76 452 60T427 27T387 -1T327 -13Q289 -13 269 3T249 46ZM352 624Q352 650 371 669T416 688Q442 688 461 669T480 624Q480 598 461 579T416 560Q390 560 371 579T352 624ZM182 624Q182 650 201 669T246 688Q272 688 291 669T310 624Q310 598 291 579T246 560Q220 560 201 579T182 624Z"  />
<glyph unicode="&#xFD;" horiz-adv-x="487" d="M343 331Q353 350 365 370T390 406T420 432T456 442Q482 442 493 427T504 391Q504 366 490 350T452 334Q441 334 434 339T426 357Q426 371 433 380T440 399Q440 411 427 411Q412 411 396 391T352 319L190 19L135 -90Q118 -122 99 -152T56 -205T4 -242T-60 -256Q-77 -256 -93 -252T-121 -239T-140 -216T-148 -182Q-148 -156 -134 -139T-92 -121Q-77 -121 -68 -128T-59 -151Q-59 -169 -66 -181T-73 -212Q-73 -225 -66 -233T-41 -242Q-6 -242 25 -211T79 -127T117 -6T131 136Q131 279 116 341T75 404Q60 404 50 394T31 368T19 335T11 305L-2 309Q2 325 8 347T26 391T58 427T110 442Q144 442 167 429T206 394T227 343T234 283Q234 235 228 185T207 83H209L343 331ZM378 695Q384 704 393 712T418 720Q431 720 442 712T453 689Q453 673 440 661L282 529H267L378 695Z"  />
<glyph unicode="&#xFE;" horiz-adv-x="540" d="M248 746H166L170 760H352L212 368H214Q223 379 235 392T263 416T298 434T341 442Q376 442 401 428T443 391T466 336T474 270Q474 214 451 163T391 73T308 11T214 -13Q172 -13 151 11T116 78H114L-7 -266H67L63 -280H-178L-174 -266H-112L248 746ZM124 105Q127 86 133 69T149 38T171 16T197 8Q231 8 262 41T318 125T356 233T370 340Q370 423 320 423Q303 423 286 413T254 389T225 358T203 330L124 105Z"  />
<glyph unicode="&#xFF;" horiz-adv-x="487" d="M343 331Q353 350 365 370T390 406T420 432T456 442Q482 442 493 427T504 391Q504 366 490 350T452 334Q441 334 434 339T426 357Q426 371 433 380T440 399Q440 411 427 411Q412 411 396 391T352 319L190 19L135 -90Q118 -122 99 -152T56 -205T4 -242T-60 -256Q-77 -256 -93 -252T-121 -239T-140 -216T-148 -182Q-148 -156 -134 -139T-92 -121Q-77 -121 -68 -128T-59 -151Q-59 -169 -66 -181T-73 -212Q-73 -225 -66 -233T-41 -242Q-6 -242 25 -211T79 -127T117 -6T131 136Q131 279 116 341T75 404Q60 404 50 394T31 368T19 335T11 305L-2 309Q2 325 8 347T26 391T58 427T110 442Q144 442 167 429T206 394T227 343T234 283Q234 235 228 185T207 83H209L343 331ZM330 624Q330 650 349 669T394 688Q420 688 439 669T458 624Q458 598 439 579T394 560Q368 560 349 579T330 624ZM160 624Q160 650 179 669T224 688Q250 688 269 669T288 624Q288 598 269 579T224 560Q198 560 179 579T160 624Z"  />
<glyph unicode="&#x131;" horiz-adv-x="298" d="M122 415H43L47 429H230L115 97Q110 83 106 66T101 34Q101 23 106 17T124 10Q139 10 153 18T179 40T200 66T214 91L225 86Q220 76 211 60T186 27T145 -1T85 -13Q50 -13 28 5T5 55Q5 71 8 85T16 116L122 415Z"  />
<glyph unicode="&#x152;" horiz-adv-x="1051" d="M609 692Q589 697 563 700T517 704Q480 704 441 695T359 651Q309 612 273 550T212 420T176 283T164 163Q164 117 173 87T201 40T244 15T299 8Q313 8 333 10T365 16L609 692ZM1067 712L1006 542H992Q996 553 1000 574T1004 614Q1004 651 983 674T904 698H740L629 389H695Q731 389 759 405T807 441T839 482T857 512H871L772 234H758Q763 246 765 262T768 298Q768 336 739 355T664 375H624L495 14H682Q727 14 764 37T831 90T880 151T908 196H922L852 0H423Q413 0 398 0T362 -2Q342 -4 326 -5T299 -6Q235 -6 188 16T108 77T60 170T44 287Q44 332 59 381T102 479T171 570T261 646T369 698T494 718Q519 718 540 717T585 714Q609 712 628 712T669 712H1067Z"  />
<glyph unicode="&#x153;" horiz-adv-x="744" d="M654 101Q649 94 636 75T599 37T543 2T466 -13Q418 -13 382 5T326 55Q288 23 244 5T154 -13Q116 -13 87 0T37 38T5 94T-6 165Q-6 216 17 266T78 355T167 418T274 442Q323 442 357 419T409 360Q447 396 492 419T586 442Q613 442 636 437T676 422T704 396T714 360Q714 333 700 313T664 279T615 257T561 243T511 236T475 234Q465 234 455 234T433 236Q422 204 414 167T405 93Q405 44 426 25T482 5Q515 5 541 17T588 47T621 81T642 109L654 101ZM271 428Q246 428 223 409T180 359T144 290T117 212T99 136T93 73Q93 35 108 18T149 1Q177 1 202 21T247 73T282 145T309 224T325 296T331 351Q331 388 317 408T271 428ZM620 384Q620 406 610 417T582 428Q556 428 534 410T493 365T460 307T438 250Q444 249 452 249T468 248Q502 248 530 258T578 287T609 330T620 384Z"  />
<glyph unicode="&#x160;" horiz-adv-x="625" d="M23 197H36Q31 182 27 169T23 138Q23 104 39 78T81 35T136 9T194 0Q282 0 330 44T379 160Q379 198 364 227T319 284L248 349Q200 392 175 434T149 531Q149 572 169 607T225 669T307 710T408 725Q441 725 466 720T511 707T549 695T583 689Q598 689 606 696T619 715L634 712L565 521H553Q555 529 558 543T562 580Q562 614 547 639T510 680T460 703T408 711Q375 711 347 702T299 677T267 639T255 588Q255 565 261 546T277 510T302 479T331 451L420 371Q456 339 479 303T502 210Q502 168 482 128T422 56T327 5T199 -14Q158 -14 130 -8T80 6T41 20T4 27Q-10 27 -21 18T-34 -5L-48 -2L23 197ZM465 762H414L339 959H354L449 830L612 959H629L465 762Z"  />
<glyph unicode="&#x161;" horiz-adv-x="375" d="M233 428Q196 428 175 407T153 359Q153 336 160 317T186 275L245 198Q256 183 264 164T272 124Q272 90 254 65T207 22T147 -4T86 -13Q62 -13 40 -7T1 10T-27 39T-37 78Q-37 106 -21 121T19 137Q34 137 42 128T51 106Q51 91 45 76T39 45Q39 24 52 13T88 1Q107 1 123 7T151 24T169 49T176 77Q176 96 172 112T152 149L104 212Q89 232 77 255T64 308Q64 335 78 359T117 401T171 431T234 442Q256 442 276 437T311 421T334 397T343 365Q343 339 329 326T292 312Q275 312 263 322T251 351Q251 368 259 377T268 399Q268 411 259 419T233 428ZM274 529H223L148 726H163L258 597L421 726H438L274 529Z"  />
<glyph unicode="&#x178;" horiz-adv-x="657" d="M154 14L264 323L193 698H102L106 712H418L414 698H321L386 355L691 698H611L615 712H775L771 698H711L393 339L276 14H373L369 0H56L60 14H154ZM523 878Q523 904 542 923T587 942Q613 942 632 923T651 878Q651 852 632 833T587 814Q561 814 542 833T523 878ZM353 878Q353 904 372 923T417 942Q443 942 462 923T481 878Q481 852 462 833T417 814Q391 814 372 833T353 878Z"  />
<glyph unicode="&#x17D;" horiz-adv-x="675" d="M541 698H363Q319 698 282 676T216 625T168 565T139 517H125L194 712H699L110 14H348Q391 14 428 36T494 89T542 150T571 196H585L514 0H-48L541 698ZM469 762H418L343 959H358L453 830L616 959H633L469 762Z"  />
<glyph unicode="&#x17E;" horiz-adv-x="475" d="M338 16Q365 16 365 38Q365 50 360 58T345 74Q334 83 320 96T305 133Q305 153 318 164T350 175Q377 175 390 157T403 107Q403 71 392 48T362 11T322 -8T277 -13Q240 -13 217 -10T167 0L114 12Q98 16 82 18T42 20Q16 20 -2 9T-29 -13L-40 -4L285 329Q265 330 235 330T174 332T119 333T86 334Q57 334 51 308L46 289L33 292Q36 301 40 319T50 358T59 395T65 417Q69 425 73 429T89 433Q98 433 120 433T171 431T231 429T291 427T341 426T371 425Q380 425 386 429T396 439L405 431L97 114Q123 114 143 112T181 104T215 90T249 68L282 43Q298 31 312 24T338 16ZM264 529H213L138 726H153L248 597L411 726H428L264 529Z"  />
<glyph unicode="&#x192;" horiz-adv-x="571" d="M79 348H215L254 459Q271 508 298 556T361 642T439 703T526 727Q557 727 579 718T615 695T635 664T642 630Q642 609 626 589T578 569Q552 569 544 581T535 607Q535 619 540 628T552 646T563 662T568 680Q568 697 555 705T527 713Q499 713 477 693T437 640T404 565T373 480L328 348H465L460 334H323L226 48Q204 -17 174 -76T107 -181T29 -254T-57 -281Q-100 -281 -129 -262T-159 -200Q-159 -175 -143 -157T-98 -138Q-79 -138 -70 -147T-61 -170Q-61 -190 -68 -205T-76 -237Q-76 -252 -71 -259T-50 -267Q-35 -267 -21 -254T9 -211T43 -136T84 -26L210 334H74L79 348Z"  />
<glyph unicode="&#x2C6;" horiz-adv-x="278" d="M214 726H265L340 529H325L230 658L67 529H50L214 726Z"  />
<glyph unicode="&#x2C7;" horiz-adv-x="278" d="M227 529H176L101 726H116L211 597L374 726H391L227 529Z"  />
<glyph unicode="&#x2DA;" horiz-adv-x="278" d="M330 649Q330 625 320 604T292 566T252 540T207 530Q169 530 150 553T130 611Q130 633 140 654T168 691T207 718T252 728Q283 728 306 709T330 649ZM277 692Q277 717 255 717Q239 717 227 699T205 656T191 606T186 567Q186 556 190 549T206 541Q222 541 235 558T257 600T272 650T277 692Z"  />
<glyph unicode="&#x2DC;" horiz-adv-x="278" d="M388 691Q382 668 375 648T357 611T331 585T292 575Q274 575 252 582T208 597T165 613T130 620Q118 620 111 614T99 596L90 569H76Q82 591 89 612T107 649T133 675T172 685Q190 685 212 678T256 663T299 647T334 640Q346 640 353 646T365 664L374 691H388Z"  />
<glyph unicode="&#x2013;" horiz-adv-x="500" d="M-41 224H459L455 210H-45L-41 224Z"  />
<glyph unicode="&#x2014;" horiz-adv-x="1000" d="M97 224H837L833 210H93L97 224Z"  />
<glyph unicode="&#x2018;" horiz-adv-x="278" d="M275 554Q275 528 259 508T213 488Q178 488 159 512T139 572Q139 620 160 654T208 711T262 746T299 761L305 746Q294 742 275 732T238 707T206 672T192 625Q192 620 192 617T193 609Q200 611 204 611T214 612Q243 612 259 593T275 554Z"  />
<glyph unicode="&#x2019;" horiz-adv-x="278" d="M171 695Q171 721 187 741T233 761Q268 761 287 737T307 677Q307 629 286 595T238 538T184 503T147 488L141 503Q152 507 171 517T208 542T240 577T254 624Q254 629 254 632T253 640Q246 638 242 638T232 637Q203 637 187 656T171 695Z"  />
<glyph unicode="&#x201A;" horiz-adv-x="278" d="M-22 48Q-22 74 -6 94T40 114Q75 114 94 90T114 30Q114 -18 93 -52T45 -109T-9 -144T-46 -159L-52 -144Q-41 -140 -22 -130T15 -105T47 -70T61 -23Q61 -18 61 -15T60 -7Q53 -9 49 -9T39 -10Q10 -10 -6 9T-22 48Z"  />
<glyph unicode="&#x201C;" horiz-adv-x="461" d="M458 554Q458 528 442 508T396 488Q361 488 342 512T322 572Q322 620 343 654T391 711T445 746T482 761L488 746Q477 742 458 732T421 707T389 672T375 625Q375 620 375 617T376 609Q383 611 387 611T397 612Q426 612 442 593T458 554ZM275 554Q275 528 259 508T213 488Q178 488 159 512T139 572Q139 620 160 654T208 711T262 746T299 761L305 746Q294 742 275 732T238 707T206 672T192 625Q192 620 192 617T193 609Q200 611 204 611T214 612Q243 612 259 593T275 554Z"  />
<glyph unicode="&#x201D;" horiz-adv-x="461" d="M171 695Q171 721 187 741T233 761Q268 761 287 737T307 677Q307 629 286 595T238 538T184 503T147 488L141 503Q152 507 171 517T208 542T240 577T254 624Q254 629 254 632T253 640Q246 638 242 638T232 637Q203 637 187 656T171 695ZM354 695Q354 721 370 741T416 761Q451 761 470 737T490 677Q490 629 469 595T421 538T367 503T330 488L324 503Q335 507 354 517T391 542T423 577T437 624Q437 629 437 632T436 640Q429 638 425 638T415 637Q386 637 370 656T354 695Z"  />
<glyph unicode="&#x201E;" horiz-adv-x="461" d="M-22 48Q-22 74 -6 94T40 114Q75 114 94 90T114 30Q114 -18 93 -52T45 -109T-9 -144T-46 -159L-52 -144Q-41 -140 -22 -130T15 -105T47 -70T61 -23Q61 -18 61 -15T60 -7Q53 -9 49 -9T39 -10Q10 -10 -6 9T-22 48ZM161 48Q161 74 177 94T223 114Q258 114 277 90T297 30Q297 -18 276 -52T228 -109T174 -144T137 -159L131 -144Q142 -140 161 -130T198 -105T230 -70T244 -23Q244 -18 244 -15T243 -7Q236 -9 232 -9T222 -10Q193 -10 177 9T161 48Z"  />
<glyph unicode="&#x2020;" horiz-adv-x="556" d="M296 450Q282 450 272 450T252 447T230 439T202 424Q192 418 185 412T170 402T154 395T133 392Q104 392 87 412T70 457Q70 483 88 502T136 522Q147 522 160 517T185 504T207 489T222 478Q239 467 259 466T300 464Q309 499 311 524T306 584Q300 612 298 630T295 660Q295 688 314 708T368 728Q398 728 413 711T429 672Q429 647 413 626T374 575Q359 554 350 541T335 517T325 494T317 464Q335 464 356 466T394 480Q402 485 411 492T432 506T455 517T480 522Q509 522 524 503T539 457Q539 433 522 413T476 392Q464 392 456 394T440 401T425 412T407 424Q375 443 354 447T313 450Q305 418 298 384T290 319T296 260T326 216Q314 208 298 195T263 158T227 97T193 3L117 -280H100L176 3Q191 59 193 96T190 158T175 195T157 216Q188 233 210 260T249 318T276 384T296 450Z"  />
<glyph unicode="&#x2021;" horiz-adv-x="556" d="M192 -23Q205 -23 215 -23T236 -20T258 -12T286 3Q296 9 303 14T318 24T334 32T355 35Q385 35 401 15T418 -30Q418 -56 399 -75T351 -95Q340 -95 327 -90T303 -77T281 -62T266 -51Q249 -40 229 -39T188 -37Q180 -65 178 -88T184 -147Q190 -175 193 -193T196 -223Q196 -251 178 -271T125 -291Q95 -291 79 -274T62 -235Q62 -210 78 -189T117 -138Q132 -117 140 -104T154 -81T163 -61T171 -37Q153 -37 132 -39T94 -53Q86 -58 77 -65T57 -79T35 -90T10 -95Q-19 -95 -35 -76T-51 -30Q-51 -6 -35 14T11 35Q23 35 32 32T48 25T63 15T81 3Q113 -16 134 -20T175 -23Q183 8 191 45T201 118T197 181T167 224Q197 238 219 263T256 320T283 386T303 452Q289 452 279 452T259 449T237 441T209 426Q199 420 192 414T177 404T161 397T140 394Q111 394 94 414T77 459Q77 485 95 504T143 524Q154 524 167 519T192 506T214 491T229 480Q246 469 266 468T307 466Q311 484 314 497T318 523T318 549T313 581Q307 609 305 627T302 657Q302 685 321 705T375 725Q405 725 420 708T436 669Q436 644 420 623T381 572Q366 552 357 540T342 517T332 495T324 466Q342 466 363 468T401 482Q409 487 418 494T439 508T462 519T487 524Q516 524 531 505T546 459Q546 435 529 415T483 394Q471 394 463 396T447 403T432 414T414 426Q382 445 361 449T320 452Q312 420 305 386T297 321T304 264T336 224Q305 210 282 182T242 118T212 46T192 -23Z"  />
<glyph unicode="&#x2022;" horiz-adv-x="500" d="M72 356Q72 393 86 425T124 482T180 520T250 534Q287 534 319 520T376 482T414 426T428 356Q428 319 414 287T376 230T320 192T250 178Q213 178 181 192T124 230T86 286T72 356Z"  />
<glyph unicode="&#x2026;" horiz-adv-x="1000" d="M105 52Q105 78 123 96T167 114Q193 114 211 96T229 52Q229 26 211 8T167 -10Q141 -10 123 8T105 52ZM438 52Q438 78 456 96T500 114Q526 114 544 96T562 52Q562 26 544 8T500 -10Q474 -10 456 8T438 52ZM771 52Q771 78 789 96T833 114Q859 114 877 96T895 52Q895 26 877 8T833 -10Q807 -10 789 8T771 52Z"  />
<glyph unicode="&#x2030;" horiz-adv-x="1000" d="M533 723L550 712L117 -12L100 0L533 723ZM173 406Q150 406 131 414T96 439T73 478T64 529Q64 555 77 585T113 642T169 686T241 704Q293 704 323 670T353 584Q353 551 339 519T300 462T243 422T173 406ZM175 420Q194 420 209 435T235 473T255 523T268 576T276 619T279 644Q279 669 269 679T240 690Q216 690 198 666T166 608T145 535T138 467Q138 447 145 434T175 420ZM397 -14Q374 -14 355 -6T320 19T297 58T288 109Q288 135 301 165T337 222T393 266T465 284Q517 284 547 250T577 164Q577 131 563 99T524 42T467 2T397 -14ZM399 0Q418 0 433 15T459 53T479 103T492 156T500 199T503 224Q503 249 493 259T464 270Q440 270 422 246T390 188T369 115T362 47Q362 27 369 14T399 0ZM728 -14Q705 -14 686 -6T651 19T628 58T619 109Q619 135 632 165T668 222T724 266T796 284Q848 284 878 250T908 164Q908 131 894 99T855 42T798 2T728 -14ZM730 0Q749 0 764 15T790 53T810 103T823 156T831 199T834 224Q834 249 824 259T795 270Q771 270 753 246T721 188T700 115T693 47Q693 27 700 14T730 0Z"  />
<glyph unicode="&#x2039;" horiz-adv-x="278" d="M207 344Q173 338 151 320T114 278T94 226T88 176Q88 138 101 116T139 86L135 74Q115 79 93 87T50 110T17 147T4 201Q4 242 21 270T66 316T131 343T207 357V344Z"  />
<glyph unicode="&#x203A;" horiz-adv-x="278" d="M-33 87Q1 93 23 111T60 153T80 205T86 255Q86 293 73 315T35 345L39 357Q58 352 81 344T124 321T157 284T170 230Q170 189 153 161T108 115T43 88T-33 74V87Z"  />
<glyph unicode="&#x20AC;" horiz-adv-x="516" d="M66 301Q74 362 99 426H46L51 440H105Q127 491 158 538T228 623T311 682T404 704Q424 704 440 698T471 685T497 672T521 666Q535 666 543 673T560 694L574 691L513 528H499Q500 537 500 548T501 571Q501 592 495 613T477 652T447 679T404 690Q373 690 346 670T296 616T253 536T218 440H454L448 426H214Q196 364 184 301H403L397 287H182Q173 237 169 193T164 115Q164 62 181 33T243 4Q265 4 287 13T330 39T366 75T394 119L409 112Q398 89 380 67T339 26T289 -3T231 -14Q183 -14 151 10T99 74T72 162T64 263Q64 269 64 275T65 287H8L13 301H66Z"  />
<glyph unicode="&#x2122;" horiz-adv-x="981" d="M544 701H496V712H639L734 447L830 712H968V701H920V333H968V322H788V333H836V690L702 322H691L557 690V333H605V322H496V333H544V701ZM255 701Q238 701 221 700T189 689T160 661T139 608H128V712H466V608H455Q447 642 434 661T406 689T373 699T339 701V333H390V322H204V333H255V701Z"  />


</font>
</defs>
</svg>
